<svg width="910" height="354" viewBox="0 0 910 354" fill="none" xmlns="http://www.w3.org/2000/svg">
<path d="M-220.762 173.774C-246.705 157.755 -274.89 129.95 -306.755 88.9767C-328.677 60.7369 -348.462 31.1848 -367.601 2.60662C-373.128 -5.64852 -378.837 -14.1804 -384.433 -22.4192L-383.175 -23.2762C-377.579 -15.0373 -371.87 -6.50545 -366.343 1.74969C-347.224 30.3036 -327.452 59.8367 -305.561 88.0332C-271.885 131.346 -242.369 159.868 -215.308 175.238C-183.701 192.934 -163.818 190.027 -147.044 184.236C-139.571 181.517 -132.437 178.071 -125.551 174.743C-116.239 170.245 -107.442 165.992 -98.4993 163.804C-66.2397 155.623 -15.8353 159.093 20.5863 165.071L20.339 166.575C-15.9234 160.626 -66.0893 157.15 -98.1288 165.279C-106.921 167.431 -115.651 171.653 -124.893 176.113C-131.825 179.46 -138.984 182.926 -146.545 185.673C-163.67 191.576 -183.936 194.552 -216.064 176.558C-217.632 175.672 -219.205 174.736 -220.788 173.759L-220.762 173.774Z" fill="#F5F5F5" fill-opacity="0.4"/>
<path d="M-157.274 92.8282C-187.046 74.4445 -215.326 51.0579 -237.38 26.5331L-236.247 25.5167C-213.079 51.2821 -182.991 75.7963 -151.557 94.5135C-119.796 113.444 -87.6047 125.777 -58.4591 130.176C-27.2328 135.355 7.86779 127.788 38.8391 121.103C50.0246 118.596 60.7031 116.035 70.1324 113.783C87.3036 109.672 100.864 106.421 108.135 105.705C110.26 105.442 112.763 105.06 115.417 104.665C126.873 102.937 142.563 100.578 159.831 102.192C186.246 104.693 207.976 115.714 226.26 135.877L225.135 136.899C207.118 117.029 185.709 106.172 159.695 103.706C142.619 102.106 127.029 104.455 115.65 106.173C112.991 106.576 110.479 106.952 108.313 107.225C101.119 107.93 87.6 111.171 70.4924 115.275C61.0578 117.535 50.3708 120.091 39.1716 122.601C8.0679 129.31 -27.1893 136.921 -58.6894 131.691C-88.0164 127.262 -120.399 114.858 -152.327 95.8362C-153.976 94.853 -155.629 93.856 -157.263 92.8473L-157.274 92.8282Z" fill="#F5F5F5" fill-opacity="0.4"/>
<path d="M-153.073 99.7475C-161.726 94.4042 -169.913 88.9142 -177.798 83.1639C-200.813 66.4015 -221.74 47.0742 -241.774 24.0553L-240.629 23.0579C-203.031 66.2428 -162.423 96.4655 -104.838 124.126C-81.0199 135.954 -53.7645 141.702 -21.5115 141.696C6.18599 141.57 35.0381 137.384 61.9192 129.596C65.4447 128.588 68.9859 127.555 72.5356 126.526C121.208 112.379 171.548 97.7566 211.016 126.323L210.123 127.559C171.246 99.4267 121.287 113.944 72.9611 127.988C69.4114 129.016 65.8702 130.05 62.3448 131.058C35.3293 138.892 6.33628 143.096 -21.5086 143.214C-54.0086 143.22 -81.4795 137.422 -105.504 125.49C-123.186 116.992 -138.765 108.571 -153.059 99.7443L-153.073 99.7475Z" fill="#F5F5F5" fill-opacity="0.4"/>
<path d="M-164.354 82.4042C-188.62 67.4198 -212.197 49.1118 -233.493 28.6511L-232.438 27.5515C-172.957 84.7076 -107.676 114.523 -69.3566 118.722C-49.0022 121.465 -22.8321 117.646 0.0896718 113.547C22.5791 109.464 44.183 104.341 54.7338 101.301C66.272 97.7659 87.4676 92.7899 109.204 90.4398C128.916 88.2852 156.735 87.2579 177.334 94.63C212.941 107.332 223.748 126.546 224.861 128.702L223.544 129.464L223.509 129.407C222.417 127.311 211.877 108.579 176.818 96.0745C156.489 88.7984 128.909 89.8201 109.36 91.958C87.7313 94.3043 66.6373 99.249 55.1541 102.771C44.5483 105.824 22.8893 110.961 0.344838 115.057C-22.6956 119.175 -49.0066 123.014 -69.5562 120.244C-90.2853 117.975 -116.952 108.572 -144.639 93.7785C-151.242 90.2537 -157.829 86.4563 -164.373 82.416L-164.354 82.4042Z" fill="#F5F5F5" fill-opacity="0.4"/>
<path d="M-176.267 69.4179C-196.56 56.8871 -214.739 42.6648 -229.13 30.9108L-228.166 29.7311C-209.734 44.7799 -185.085 63.9027 -157.762 78.2589C-130.003 92.8968 -101.278 101.726 -69.9374 105.236C-37.1978 108.363 -10.0248 102.424 14.4677 95.5352C24.2799 92.7208 33.6723 89.7294 42.7463 86.8352C56.4096 82.4852 69.3206 78.3639 80.9857 75.7652C118.455 67.2751 167.493 63.2497 214.561 107.886L213.515 108.991C166.972 64.8553 118.412 68.8474 81.3149 77.2495C69.7048 79.8352 56.8267 83.9415 43.1994 88.2903C34.1117 91.1878 24.7192 94.1791 14.8657 97.0033C-9.76961 103.933 -37.1026 109.903 -70.1094 106.751C-101.659 103.218 -130.555 94.3425 -158.481 79.6132C-164.557 76.4142 -170.504 72.9886 -176.281 69.4211L-176.267 69.4179Z" fill="#F5F5F5" fill-opacity="0.4"/>
<path d="M-195.703 52.2449C-204.756 46.6547 -213.774 40.5691 -222.751 33.9799L-221.85 32.7497C-186.527 58.6634 -150.548 76.8725 -114.922 86.86C-85.1701 95.2066 -56.4296 97.2166 -34.0114 92.5255C-19.7726 89.3182 -5.04467 83.2631 10.542 76.8452C19.6146 73.1157 28.9854 69.2647 38.5771 65.8557C69.4813 54.6166 95.3319 50.7051 117.601 53.9257C142.482 57.3134 159.717 61.8915 173.472 68.775C186.089 75.0848 195.559 83.1776 207.647 95.0256L206.589 96.1115C183.055 73.0702 167.511 62.25 117.398 55.4341C95.3721 52.2578 69.7673 56.133 39.0904 67.2893C29.5263 70.6918 20.1693 74.5394 11.1157 78.2572C-4.5398 84.6914 -19.3195 90.7732 -33.6959 94.0131C-56.3704 98.7575 -85.361 96.7341 -115.346 88.3262C-142.085 80.8293 -169.012 68.7267 -195.703 52.2449Z" fill="#F5F5F5" fill-opacity="0.4"/>
<path d="M-215.378 37.2282L-214.605 35.9192C-134.891 82.921 -93.7256 85.575 -58.3961 84.2612C-42.9503 82.9627 -28.2819 74.7201 -12.7533 65.998C-10.181 64.5541 -7.52424 63.0684 -4.85039 61.5933C13.2202 51.5143 34.999 40.8928 59.5278 38.5509C106.205 33.42 121.848 36.333 139.239 44.827L138.573 46.1906C121.448 37.8372 105.99 34.9677 59.6748 40.0638C35.414 42.3713 13.8129 52.9146 -4.1213 62.9249C-6.79515 64.4001 -9.45197 65.8858 -12.019 67.3212C-27.6945 76.1289 -42.4992 84.4401 -58.3074 85.7733C-75.0395 86.395 -95.6 86.0982 -121.61 79.2281C-149.062 71.9726 -179.74 58.2355 -215.381 37.2145L-215.378 37.2282Z" fill="#F5F5F5" fill-opacity="0.4"/>
<path d="M-109.075 40.086L-109.404 38.6016C-89.173 34.0644 -72.8884 29.6758 -58.5314 25.8011C-40.1162 20.8359 -24.2222 16.5469 -6.2104 13.6244C27.0958 8.24047 66.0751 6.38321 86.466 9.21964C107.965 12.2229 112.435 15.1476 112.472 15.1824L111.614 16.4389C111.614 16.4389 106.839 13.608 86.2495 10.7313C65.987 7.91542 27.2015 9.76313 -5.97753 15.1315C-23.912 18.043 -39.7732 22.317 -58.1472 27.2724C-72.518 31.1504 -88.8162 35.5423 -109.075 40.086Z" fill="#F5F5F5" fill-opacity="0.4"/>
<path d="M-76.609 35.3585L-76.8832 33.8611C-64.884 31.692 -53.8708 29.6544 -44.1402 27.8474C-10.5936 21.6364 13.6436 17.14 38.7431 14.6922C71.1179 11.7302 108.406 18.7597 125.568 24.1979L125.111 25.6431C108.066 20.2424 71.0383 13.2676 38.8902 16.2051C13.8542 18.6452 -10.3555 23.1351 -43.866 29.3448C-53.5914 31.1433 -64.6098 33.1894 -76.609 35.3585Z" fill="#F5F5F5" fill-opacity="0.4"/>
<path d="M-20.8306 29.3833L-21 27.8684C-11.007 26.7405 -2.32567 25.7193 5.32491 24.8257C39.5723 20.8104 53.7485 19.151 74.3567 20.8171C98.9077 22.7788 113.22 25.9046 144.676 39.5813L144.07 40.9816C112.808 27.3898 98.5936 24.2772 74.2293 22.3368C53.7684 20.6795 39.6368 22.3428 5.49423 26.3406C-2.16161 27.2428 -10.8376 28.2554 -20.8444 29.3866L-20.8306 29.3833Z" fill="#F5F5F5" fill-opacity="0.4"/>
<path d="M252.577 154.126C243.473 148.504 234.386 140.837 224.359 130.637L225.443 129.567C250.934 155.474 270.264 164.919 299.343 165.657C309.758 165.788 320.493 162.792 331.872 159.629C352.983 153.743 376.904 147.076 409.944 155.502C456.605 166.956 469.775 180.213 471.931 182.754L471.983 182.822L471.499 183.263L471.042 184.004C470.931 183.935 470.87 183.863 470.778 183.747C468.665 181.267 455.782 168.328 409.574 156.978C376.928 148.654 353.206 155.267 332.284 161.093C320.803 164.288 309.966 167.316 299.319 167.182C281.256 166.723 266.905 162.974 252.585 154.131L252.577 154.126Z" fill="#F5F5F5" fill-opacity="0.4"/>
<path d="M249.409 149.244C240.561 143.78 231.665 136.583 222.393 127.484L223.46 126.403C246.884 149.412 267.914 160.141 291.639 161.194C308.882 161.839 320.864 157.262 333.547 152.424C348.588 146.68 364.145 140.749 389.629 143.369C430.031 147.221 454.916 157.815 470.315 177.702L469.118 178.631C453.998 159.093 429.441 148.69 389.485 144.878C364.352 142.299 348.976 148.165 334.093 153.843C321.265 158.744 309.14 163.362 291.584 162.711C276.883 162.06 263.21 157.766 249.418 149.249L249.409 149.244Z" fill="#F5F5F5" fill-opacity="0.4"/>
<path d="M244.538 143.086C236.413 138.069 228.263 131.814 220.153 124.373L221.183 123.258C252.543 152.049 283.315 162.341 312.632 153.824C325.858 150.05 335.439 146.505 343.886 143.389C361.655 136.825 372.387 132.863 395.545 134.74C428.338 137.478 449.433 143.664 466.956 168.447L465.71 169.323C448.535 145.025 427.751 138.961 395.418 136.26C372.594 134.413 361.982 138.332 344.414 144.819C335.933 147.951 326.33 151.493 313.053 155.294C298.217 159.602 282.742 159.12 267.076 153.865C259.61 151.359 252.089 147.76 244.541 143.1L244.538 143.086Z" fill="#F5F5F5" fill-opacity="0.4"/>
<path d="M238.088 136.365C232.455 132.886 226.494 128.665 220.001 123.515L220.948 122.325C248.278 143.997 266.07 149.119 289.346 150.975C302.695 151.931 315.398 145.824 328.843 139.353C337.891 134.997 347.253 130.495 357.229 128.005C386.976 120.411 413.924 126.674 424.132 129.709C442.507 135.239 453.506 144.51 459.505 151.317L458.369 152.32C452.506 145.655 441.735 136.584 423.705 131.162C413.621 128.155 386.988 121.97 357.605 129.471C347.775 131.933 338.484 136.398 329.507 140.715C315.865 147.276 302.993 153.466 289.229 152.478C271.188 151.033 256.403 147.663 238.084 136.351L238.088 136.365Z" fill="#F5F5F5" fill-opacity="0.4"/>
<path d="M223.166 124.671C221.924 123.904 220.673 123.131 219.387 122.302L220.203 121.019C262.742 148.075 279.698 146.063 294.656 144.299C303.182 143.053 312.136 137.746 322.495 131.59C338.436 122.124 356.512 111.39 379.194 112.115C416.827 112.799 425.665 116.13 447.084 130.073L446.251 131.345C424.785 117.384 416.641 114.318 379.147 113.637C356.904 112.925 339.032 123.538 323.262 132.898C312.762 139.131 303.688 144.517 294.844 145.802C280.072 147.551 263.403 149.517 223.158 124.665L223.166 124.671Z" fill="#F5F5F5" fill-opacity="0.4"/>
<path d="M219.471 121.214C219.148 121.014 218.816 120.809 218.493 120.61L219.291 119.316C241.79 133.491 269.001 140.927 288.598 138.255C299.094 136.673 308.82 130.174 319.117 123.299C331.986 114.697 346.569 104.956 366.272 102.055C382.217 99.549 397.414 100.613 411.435 105.239C422.137 108.768 431.924 114.236 440.525 121.509L439.541 122.665C425.627 110.9 401.651 98.034 366.505 103.562C347.139 106.413 332.699 116.054 319.969 124.565C309.528 131.539 299.664 138.13 288.817 139.765C269.157 142.445 242.056 135.172 219.475 121.228L219.471 121.214Z" fill="#F5F5F5" fill-opacity="0.4"/>
<path d="M218.797 119.375C218.354 119.102 217.912 118.829 217.475 118.547L218.299 117.27C234.661 127.773 253.736 132.511 275.047 131.403C287.493 130.756 300.007 126.06 311.262 117.825C313.286 116.337 315.103 114.955 316.857 113.617C324.265 107.978 330.112 103.515 342.82 98.1045C360.681 90.5527 383.345 88.0343 395.525 92.253L395.028 93.6856C383.157 89.5756 360.971 92.0828 343.412 99.5047C330.885 104.85 325.097 109.256 317.776 114.831C316.008 116.172 314.186 117.562 312.148 119.054C300.658 127.461 287.862 132.252 275.122 132.918C254.063 134.018 235.125 129.458 218.797 119.375Z" fill="#F5F5F5" fill-opacity="0.4"/>
<path d="M217.03 117.497L217.735 116.146C240.594 128.157 265.27 126.776 280.734 121.469C289.885 118.223 297.91 113.259 306.41 108.001C319.384 99.9698 332.796 91.6683 350.855 89.6211L351.025 91.136C333.306 93.1463 320.032 101.357 307.21 109.294C298.642 114.604 290.546 119.607 281.234 122.906C265.459 128.315 240.327 129.732 217.03 117.497Z" fill="#F5F5F5" fill-opacity="0.4"/>
<path d="M216.587 116.33L217.075 114.892C236.15 121.441 243.95 120.78 258.412 118.792C277.666 116.084 292.945 107.385 302.371 100.571L303.266 101.805C293.705 108.724 278.194 117.551 258.631 120.302C242.824 122.471 235.103 122.698 216.587 116.33Z" fill="#F5F5F5" fill-opacity="0.4"/>
<path d="M216.141 115.15L216.489 113.672C242.38 119.858 255.306 114.97 263.849 111.737C274.22 107.751 282.639 103.253 283.565 102.744L284.074 102.471L284.501 102.864L283.959 103.399L284.321 104.069C283.363 104.594 274.868 109.138 264.404 113.16C255.675 116.467 242.497 121.458 216.149 115.155L216.141 115.15Z" fill="#F5F5F5" fill-opacity="0.4"/>
<path d="M215.703 113.974L215.928 112.468C238.526 115.88 252.958 109.219 263.014 103.041L263.814 104.334C253.543 110.65 238.789 117.452 215.708 113.966L215.703 113.974Z" fill="#F5F5F5" fill-opacity="0.4"/>
<path d="M-27.8517 152.802L-27.6405 151.298C17.1267 157.693 41.5248 163.309 62.3895 172.021C84.8426 181.396 103.185 194.65 128.595 213.796C145.197 226.233 166.576 233.312 193.955 235.433C216.021 237.117 236.123 235.016 246.14 233.621C260.314 231.49 272.97 227.552 287.609 222.993C306.335 217.162 327.552 210.554 357.443 206.246L357.662 207.757C327.898 212.049 306.733 218.63 288.062 224.448C273.355 229.023 260.652 232.979 246.36 235.131C236.274 236.542 216.049 238.651 193.841 236.949C166.168 234.811 144.524 227.627 127.677 215.015C75.7762 175.903 58.6318 165.164 -27.8655 152.805L-27.8517 152.802Z" fill="#F5F5F5" fill-opacity="0.4"/>
<path d="M-11.592 153.04L-11.456 151.526C4.04071 152.962 20.7148 154.737 39.2407 159.243C61.7351 164.706 81.2401 172.86 98.8816 184.165C138.91 209.787 154.224 218.562 182.436 224.453C210.515 230.274 231.369 226.956 260.016 218.801C297.546 208.138 326.984 203.175 347.525 204.036L347.456 205.556C327.076 204.701 297.792 209.642 260.428 220.266C231.542 228.484 210.511 231.823 182.118 225.938C153.655 219.997 138.264 211.175 98.0574 185.442C57.5026 159.436 14.2366 155.426 -11.6004 153.035L-11.592 153.04Z" fill="#F5F5F5" fill-opacity="0.4"/>
<path d="M4.24852 151.997L4.3845 150.483C6.06334 150.638 7.76121 150.781 9.47609 150.935C35.0526 153.178 64.0418 155.717 101.123 178.004C145.382 204.711 184.755 218.128 218.115 217.89C233.284 217.478 251.828 212.875 269.759 208.41C296.593 201.744 321.944 195.444 338.314 201.462L337.786 202.888C321.86 197.026 295.554 203.559 270.129 209.884C252.122 214.361 233.489 218.992 218.146 219.402C184.48 219.639 144.858 206.15 100.347 179.299C63.5685 157.188 34.766 154.669 9.35389 152.446C7.63901 152.292 5.94114 152.149 4.2623 151.994L4.24852 151.997Z" fill="#F5F5F5" fill-opacity="0.4"/>
<path d="M17.6412 150.312L17.7018 148.787C47.1268 149.973 77.3027 157.9 102.667 171.106C129.445 185.373 184.507 207.585 218.288 206.514C230.811 206.067 244.893 203.703 259.795 201.211C283.796 197.192 308.623 193.036 326.52 197.494L326.149 198.969C308.56 194.584 283.893 198.709 260.047 202.706C245.09 205.212 230.958 207.58 218.341 208.028C184.258 209.112 128.87 186.781 101.959 172.444C76.7869 159.345 46.8434 151.479 17.6379 150.298L17.6412 150.312Z" fill="#F5F5F5" fill-opacity="0.4"/>
<path d="M25.7654 148.994L25.7762 147.473C50.3706 147.651 64.6737 152.029 82.778 157.579C85.1118 158.291 87.5019 159.027 89.9726 159.765C96.3347 161.719 104.284 165.253 113.476 169.342C135.246 179.024 165.052 192.27 196.846 194.284C221.484 195.877 241.475 194.012 259.107 192.371C278.523 190.562 295.286 188.996 313.377 192.246L313.112 193.74C295.228 190.536 278.556 192.088 259.254 193.884C241.558 195.533 221.517 197.402 196.754 195.803C164.688 193.773 134.736 180.46 112.861 170.737C103.703 166.669 95.8019 163.153 89.5321 161.221C87.0529 160.477 84.6628 159.742 82.329 159.029C64.3426 153.517 50.1403 149.166 25.7654 148.994Z" fill="#F5F5F5" fill-opacity="0.4"/>
<path d="M39.8352 149.62L39.774 148.101C57.9494 147.407 81.5999 141.044 102.474 135.446C109.799 133.482 116.719 131.62 122.983 130.117L123.918 129.859C141.732 124.935 189.034 111.845 229.652 138.396L228.82 139.668C188.787 113.502 141.954 126.459 124.324 131.333L123.362 131.597C117.098 133.1 110.192 134.958 102.872 136.914C81.9239 142.537 58.1823 148.914 39.8352 149.62Z" fill="#F5F5F5" fill-opacity="0.4"/>
<path d="M48.8467 150.671L48.7495 149.154C76.0276 147.346 101.415 141.444 121.813 136.693L124.239 136.134C144.827 130.924 179.244 122.218 236.797 144.241L236.252 145.656C179.146 123.803 145.018 132.441 124.628 137.597L124.573 137.61L122.148 138.169C101.699 142.925 76.2468 148.857 48.8382 150.666L48.8467 150.671Z" fill="#F5F5F5" fill-opacity="0.4"/>
<path d="M53.3993 151.426L53.4102 149.904C70.2473 150.065 95.1508 146.849 119.228 143.735C129.713 142.382 140.543 140.983 150.346 139.915C182.852 136.399 229.373 144.558 254.047 158.102L253.317 159.437C228.874 146.013 182.75 137.934 150.507 141.424C140.717 142.49 129.887 143.888 119.416 145.238C95.2808 148.352 70.3222 151.58 53.3908 151.42L53.3993 151.426Z" fill="#F5F5F5" fill-opacity="0.4"/>
<path d="M60.1856 152.807L60.205 151.291C93.178 151.719 132.505 148.784 153.016 146.993C174.543 145.019 212.587 147.379 271.57 169.827L271.034 171.247C212.316 148.904 174.519 146.544 153.149 148.509C132.603 150.301 93.2169 153.236 60.1856 152.807Z" fill="#F5F5F5" fill-opacity="0.4"/>
<path d="M67.5044 154.659L67.6849 153.148C85.8947 155.272 103.127 154.983 121.374 154.686C140.149 154.373 159.566 154.047 180.633 156.513C204.278 159.255 238.723 165.598 277.618 174.384C278.661 174.617 279.422 174.793 279.52 174.806L279.382 175.544L280.045 175.954C279.853 176.266 278.928 176.235 277.27 175.862C238.431 167.099 204.04 160.765 180.444 158.018C159.475 155.565 140.107 155.887 121.383 156.195C103.08 156.506 85.8033 156.791 67.4874 154.648L67.5044 154.659Z" fill="#F5F5F5" fill-opacity="0.4"/>
<path d="M77.5935 157.562L77.7157 156.051C92.6768 157.251 106.486 162.334 122.471 168.232C130.39 171.148 138.565 174.163 147.938 177.142C176.187 186.076 216.739 186.659 229.983 186.128C233.79 185.94 238.044 185.617 242.547 185.272C260.604 183.893 283.074 182.184 302.094 187.03L301.715 188.5C282.936 183.721 260.602 185.42 242.658 186.786C238.141 187.135 233.873 187.461 230.044 187.647C216.714 188.184 175.929 187.598 147.467 178.59C138.063 175.604 129.871 172.579 121.935 169.653C106.054 163.795 92.3404 158.747 77.5882 157.571L77.5935 157.562Z" fill="#F5F5F5" fill-opacity="0.4"/>
<path d="M85.1606 158.498L85.3051 156.989C105.244 158.864 117.148 162.254 133.613 166.956L135.662 167.54C154.785 173.001 184.925 177.674 205.77 178.405C216.236 178.756 226.783 178.863 236.976 178.952C263.702 179.201 286.779 179.418 296.3 184.099L295.635 185.462C286.427 180.94 263.502 180.723 236.965 180.474C226.763 180.379 216.211 180.281 205.723 179.927C184.775 179.192 154.47 174.5 135.252 169.003L133.203 168.419C116.817 163.742 104.974 160.366 85.1692 158.503L85.1606 158.498Z" fill="#F5F5F5" fill-opacity="0.4"/>
<path d="M80.8601 157.887L80.9292 156.367C122.699 158.289 155.672 161.42 178.919 165.645C191.537 167.936 214.795 170.298 237.284 172.573C257.334 174.611 276.272 176.526 285.385 178.193L285.107 179.69C276.055 178.038 257.145 176.116 237.126 174.085C214.606 171.803 191.318 169.434 178.647 167.133C155.466 162.915 122.568 159.795 80.8568 157.873L80.8601 157.887Z" fill="#F5F5F5" fill-opacity="0.4"/>
<path d="M258.693 161.37L259.424 160.035C298.148 181.373 348.021 206.069 390.323 207.757L390.268 209.274C347.643 207.576 297.559 182.784 258.684 161.365L258.693 161.37Z" fill="#F5F5F5" fill-opacity="0.4"/>
<path d="M268.14 165.523L268.746 164.122C323.708 188.001 327.968 189.268 351.594 196.323L352.368 196.555C376.367 203.617 412.386 209.428 412.732 209.477L412.619 210.23L413.16 210.763C412.952 210.972 410.719 210.706 406.46 209.964C403.02 209.368 397.611 208.402 391.358 207.185C380.324 205.05 364.531 201.715 351.936 198.015L351.162 197.784C327.465 190.709 323.197 189.437 268.14 165.523Z" fill="#F5F5F5" fill-opacity="0.4"/>
<path d="M278.685 168.697L279.213 167.271C282.299 168.402 285.817 169.728 289.878 171.26C314.093 180.371 354.631 195.613 380.622 199.239C409.215 203.333 431.782 211.744 446.706 217.304L449.352 218.292L448.824 219.717L446.179 218.73C431.311 213.192 408.84 204.817 380.41 200.742C354.255 197.097 313.621 181.819 289.342 172.68C285.276 171.156 281.758 169.83 278.685 168.697Z" fill="#F5F5F5" fill-opacity="0.4"/>
<path d="M284.967 169.943L285.456 168.505C337.225 186.228 396.831 198.342 413.863 201.631C447.153 208.072 466.698 223.338 470.277 226.335L470.36 226.41L469.921 226.95L469.584 227.705C469.479 227.665 469.439 227.616 469.296 227.504C465.772 224.552 446.495 209.5 413.571 203.131C396.508 199.835 336.819 187.705 284.954 169.946L284.967 169.943Z" fill="#F5F5F5" fill-opacity="0.4"/>
<path d="M290.964 170.719L291.396 169.259C320.025 177.805 371.611 189.127 395.543 192.128C436.811 197.584 465.253 210.622 480.101 230.886L478.875 231.786C464.278 211.877 436.182 199.041 395.349 193.642C371.358 190.64 319.65 179.289 290.964 170.719Z" fill="#F5F5F5" fill-opacity="0.4"/>
<path d="M295.905 171.091L296.276 169.616C323.409 176.322 358.444 184.299 388.778 186.411C419.761 188.596 438.384 193.02 457.478 202.754C473.276 210.781 483.692 220.598 489.649 227.414C496.046 234.737 498.994 240.507 499.009 240.845L497.485 240.915L498.247 240.88L497.547 241.176C497.453 240.966 486.691 219.3 456.795 204.107C437.894 194.48 419.438 190.089 388.678 187.924C358.227 185.81 323.109 177.817 295.919 171.088L295.905 171.091Z" fill="#F5F5F5" fill-opacity="0.4"/>
<path d="M274.608 173.548C259.88 164.454 245.799 154.101 232.916 142.855L233.917 141.711C277.391 179.662 335.457 207.02 375.135 208.239L375.088 209.761C355.838 209.169 331.346 202.354 306.117 190.584C295.434 185.597 284.861 179.879 274.6 173.543L274.608 173.548Z" fill="#F5F5F5" fill-opacity="0.4"/>
<path d="M301 171.216L301.308 169.726C330.755 175.922 356.921 178.504 382.223 181C391.382 181.908 400.867 182.84 410.274 183.936C445.561 188.002 463.916 195.905 492.103 219.139C510.308 234.118 516.933 250.397 516.905 251.167L516.149 251.135L515.42 251.344C515.371 251.195 509.475 235.391 491.141 220.297C463.218 197.284 445.048 189.46 410.104 185.43C400.705 184.339 391.234 183.403 382.075 182.496C356.734 179.987 330.532 177.406 301.001 171.194L301 171.216Z" fill="#F5F5F5" fill-opacity="0.4"/>
<path d="M304.214 171.168L304.439 169.662C323.94 172.607 371.752 176.203 387.486 177.14C391.533 177.382 395.667 177.443 400.052 177.518C415.332 177.763 432.648 178.042 452.681 186.217C478.244 196.608 501.223 215.675 510.434 225.958C516.691 232.936 521.914 241.685 525.196 247.789C527.065 251.271 528.507 254.265 529.384 256.158C530.512 258.594 530.99 259.951 530.819 260.229L529.536 259.413L530.182 259.813L529.459 260.071C529.394 259.89 521.093 240.12 509.307 226.966C500.194 216.79 477.435 197.918 452.111 187.616C432.337 179.555 415.174 179.275 400.032 179.034C395.634 178.963 391.482 178.891 387.4 178.65C371.643 177.711 323.76 174.117 304.211 171.154L304.214 171.168Z" fill="#F5F5F5" fill-opacity="0.4"/>
<path d="M308.371 170.985L308.44 169.464C315.422 169.768 322.054 170.067 328.386 170.357C354.245 171.551 374.667 172.491 394.302 171.888C414.338 171.284 436.522 172.396 462.92 184.5C493.609 198.562 515.84 222.209 520.119 227.766C524.778 233.886 542.251 260.272 546.041 269.476L544.637 270.055C540.893 260.949 523.549 234.773 518.913 228.69C514.945 223.525 492.391 199.678 462.288 185.885C436.175 173.909 414.205 172.812 394.35 173.41C374.656 174.012 354.212 173.071 328.316 171.877C321.984 171.587 315.358 171.28 308.376 170.976L308.371 170.985Z" fill="#F5F5F5" fill-opacity="0.4"/>
<path d="M314.973 170.361L314.984 168.839C332.303 168.98 368.101 168.849 379.684 167.374C392.201 165.889 435.557 165.147 457.198 176.066L456.51 177.428C435.174 166.662 392.257 167.416 379.867 168.886C368.216 170.376 332.323 170.508 314.968 170.369L314.973 170.361Z" fill="#F5F5F5" fill-opacity="0.4"/>
<path d="M316.385 170.186L316.288 168.669C337.983 167.339 349.052 165.571 364.686 162.826C376.542 160.756 387.992 160.505 395.568 160.341C398.388 160.284 400.612 160.223 401.926 160.094L402.073 161.607C400.704 161.749 398.455 161.794 395.598 161.852C388.067 162.02 376.684 162.278 364.938 164.321C349.241 167.074 338.135 168.843 316.363 170.184L316.385 170.186Z" fill="#F5F5F5" fill-opacity="0.4"/>
<path d="M215.405 113.144L215.563 111.631C226.797 112.833 231.894 110.632 238.354 107.84C244.451 105.2 246.671 102.328 246.901 102.012L247.153 101.662L247.581 101.691L247.513 102.448L248.123 102.907C247.858 103.26 245.409 106.426 238.952 109.232C232.286 112.109 227.026 114.385 215.396 113.139L215.405 113.144Z" fill="#F5F5F5" fill-opacity="0.4"/>
<path d="M215.168 112.233L215.093 110.718C220.825 110.438 228.802 107.113 231.834 104.449C234.841 101.804 235.831 100.335 235.841 100.318L236.455 100.733L237.202 100.97C237.114 101.245 235.868 102.92 232.836 105.585C229.551 108.469 221.293 111.926 215.168 112.233Z" fill="#F5F5F5" fill-opacity="0.4"/>
<path d="M215.109 111.339L214.53 109.936C218.24 108.419 225.405 100.984 225.11 98.322L226.619 98.1612C227.04 102.029 218.792 109.829 215.095 111.342L215.109 111.339Z" fill="#F5F5F5" fill-opacity="0.4"/>
<path d="M214.271 108.318L213.327 107.125C216.498 104.616 217.902 98.4787 215.965 95.6017L217.226 94.7586C219.571 98.2513 218.022 105.346 214.271 108.318Z" fill="#F5F5F5" fill-opacity="0.4"/>
<path d="M212.248 105.447C213.1 102.506 210.756 96.4048 206.927 91.5484L208.12 90.6049C211.668 95.0992 214.841 101.971 213.705 105.865L212.239 105.442L212.248 105.447Z" fill="#F5F5F5" fill-opacity="0.4"/>
<path d="M441.539 319.372C439.199 317.928 436.962 316.487 434.797 315.103C427.973 310.737 416.238 299.307 403.822 287.209C387.658 271.457 369.325 253.602 357.746 247.286C355.845 246.253 354.053 245.253 352.347 244.305C335.43 234.929 326.941 230.215 299.195 230.724L299.17 229.204C327.32 228.687 336.469 233.76 353.086 242.975C354.792 243.923 356.581 244.91 358.476 245.951C370.239 252.368 388.642 270.301 404.886 286.115C417.253 298.158 428.938 309.535 435.621 313.826C450.325 323.282 468.618 335.036 499.424 335.947C522.271 336.633 540.862 331.154 558.836 325.857C564.481 324.196 569.799 322.625 575.188 321.264C589.434 317.684 605.906 322.109 609.06 323.034L609.161 323.061L608.972 323.767L609.063 324.552C608.908 324.574 608.821 324.544 608.642 324.492C605.549 323.581 589.433 319.247 575.573 322.735C570.216 324.082 564.898 325.652 559.281 327.307C541.192 332.638 522.48 338.161 499.382 337.461C472.702 336.664 455.311 327.865 441.544 319.364L441.539 319.372Z" fill="#F5F5F5" fill-opacity="0.4"/>
<path d="M301.314 229.881L301.239 228.366C318.566 227.524 333.412 228.3 366.794 246.033C380.511 253.281 393.536 265.649 407.326 278.737C410.707 281.941 414.195 285.258 417.693 288.499C437.642 306.917 455.36 320.173 476.97 325.032C509.522 332.346 530.36 325.551 548.748 319.546C552.666 318.263 556.37 317.06 560.102 316.003C576.702 311.351 591.799 313.092 599.701 315.997L599.174 317.423C591.493 314.596 576.76 312.914 560.514 317.468C556.815 318.51 553.119 319.718 549.22 320.989C530.643 327.053 509.591 333.928 476.639 326.52C454.69 321.581 436.79 308.201 416.658 289.623C413.143 286.371 409.65 283.063 406.266 279.845C392.55 266.827 379.6 254.529 366.066 247.382C333.032 229.828 318.392 229.061 301.3 229.884L301.314 229.881Z" fill="#F5F5F5" fill-opacity="0.4"/>
<path d="M304.903 228.618L304.905 227.092C322.531 227.116 346.666 227.164 378.873 249.825C403.571 267.156 418.079 280.604 430.875 292.467C434.448 295.778 437.818 298.905 441.194 301.906C453.661 313.083 478.011 322.584 504.325 318.665C521.459 316.117 535.127 312.122 545.113 309.215C550.319 307.694 554.432 306.496 557.745 305.85C566.751 304.113 579.634 303.006 589.854 307.601L589.231 308.991C579.369 304.559 566.824 305.651 558.033 307.344C554.797 307.979 550.712 309.17 545.539 310.677C535.514 313.607 521.783 317.61 504.544 320.175C492.352 321.99 479.577 321.095 467.603 317.59C456.884 314.45 447.146 309.284 440.185 303.046C436.808 300.044 433.422 296.907 429.848 293.596C417.09 281.768 402.633 268.352 378.015 251.082C346.2 228.698 322.335 228.652 304.911 228.624L304.903 228.618Z" fill="#F5F5F5" fill-opacity="0.4"/>
<path d="M308.781 227.229L308.778 225.711C321.853 225.663 354.854 227.131 378.82 241.859L378.982 241.959C398.747 254.164 426.859 278.281 438.888 288.588C439.98 289.521 440.93 290.343 441.74 291.031C461.63 308.096 483.833 311.158 498.953 310.729C510.273 310.384 524.215 305.772 535.409 302.071C541.675 299.994 547.08 298.207 551.078 297.443C562.458 295.268 569.51 294.334 582.114 300.284L581.466 301.658C569.262 295.897 562.746 296.762 551.366 298.938C547.473 299.684 542.109 301.461 535.895 303.511C524.608 307.249 510.55 311.896 499.001 312.251C483.614 312.692 461.018 309.564 440.756 292.186C439.955 291.504 438.997 290.677 437.904 289.744C425.872 279.423 397.692 255.264 378.022 243.153C353.718 228.228 318.879 227.188 308.781 227.229Z" fill="#F5F5F5" fill-opacity="0.4"/>
<path d="M310.93 226.452L310.918 224.929C333.092 224.764 352.233 224.619 377.623 236.242C395.085 244.24 412.816 257.798 427.077 268.696C432.779 273.052 437.712 276.826 441.779 279.585C456.968 289.951 474.859 300.986 495.073 300.587C507.219 300.331 519.631 295.666 530.58 291.544C538.387 288.608 545.134 286.075 550.197 285.793C562.483 285.082 568.606 288.299 573.827 291.664L573.003 292.942C567.99 289.717 562.115 286.63 550.281 287.314C545.448 287.585 538.807 290.078 531.116 292.98C520.051 297.136 507.522 301.858 495.115 302.118C474.46 302.527 456.321 291.361 440.938 280.852C436.842 278.064 431.896 274.292 426.173 269.913C411.975 259.065 394.315 245.563 377.008 237.638C351.929 226.159 332.932 226.299 310.947 226.462L310.93 226.452Z" fill="#F5F5F5" fill-opacity="0.4"/>
<path d="M313.621 225.481L313.514 224.722L313.479 223.96C336.506 221.842 362.607 219.448 390.884 233.019C407.696 241.062 422.23 252.317 435.059 262.26C443.548 268.841 451.571 275.053 458.716 279.031C479.798 290.779 497.305 292.975 513.8 285.943C529.509 279.271 545.997 273.809 560.169 279.046L559.642 280.472C545.97 275.414 529.817 280.789 514.398 287.334C497.433 294.558 479.509 292.352 457.983 280.352C450.743 276.317 442.674 270.065 434.135 263.452C421.369 253.559 406.903 242.346 390.241 234.385C362.333 220.995 336.459 223.365 313.632 225.464L313.621 225.481Z" fill="#F5F5F5" fill-opacity="0.4"/>
<path d="M316.604 224.362L316.303 222.871C334.387 219.241 351.078 216.572 372.328 220.644C397.523 225.484 417.615 238.854 435.346 250.661C436.977 251.75 438.591 252.829 440.191 253.911C455.329 264.093 469.621 273.706 487.098 277.834C497.174 280.131 505.406 276.869 514.113 273.407C524.203 269.401 534.632 265.264 547.96 270.649L547.393 272.062C534.628 266.907 524.935 270.746 514.673 274.823C506.13 278.209 497.288 281.717 486.745 279.32C468.999 275.131 454.585 265.432 439.333 255.168C437.733 254.086 436.119 253.007 434.497 251.923C416.879 240.198 396.924 226.912 372.033 222.131C351.018 218.098 335.151 220.629 316.587 224.351L316.604 224.362Z" fill="#F5F5F5" fill-opacity="0.4"/>
<path d="M322.015 222.261L321.749 220.769C324.447 220.284 327.036 219.802 329.542 219.34C347.109 216.072 360.981 213.497 378.155 216.956C396.559 220.669 410.655 226.658 428.412 238.328C430.888 239.951 433.286 241.55 435.599 243.095C449.043 252.043 459.665 259.108 470.475 262.633L472.137 263.178C483.821 267.019 490.865 269.336 503.448 266.316C507.551 265.324 510.96 264.068 513.965 262.95C520.714 260.453 526.045 258.48 534.132 261.487L533.604 262.913C526.044 260.101 521.199 261.893 514.492 264.38C511.446 265.508 507.999 266.788 503.805 267.794C490.795 270.914 483.594 268.548 471.658 264.621L470.004 264.082C459.003 260.485 448.304 253.373 434.758 244.362C432.44 242.825 430.05 241.232 427.579 239.6C409.996 228.049 396.052 222.119 377.86 218.442C360.974 215.032 347.229 217.592 329.83 220.834C327.318 221.305 324.729 221.786 322.032 222.271L322.015 222.261Z" fill="#F5F5F5" fill-opacity="0.4"/>
<path d="M328.376 219.878L328.061 218.39C331.727 217.61 335.04 216.87 338.253 216.139C357.625 211.776 369.319 209.149 395.22 214.483C416.883 218.951 433.881 229.929 446.285 237.953C451.199 241.128 455.435 243.861 459.172 245.746C471.788 252.114 485.389 258.162 500.751 256.295C510.271 255.133 513.291 253.86 515.284 253.011C516.427 252.53 517.333 252.148 518.898 252.069L518.973 253.584C517.674 253.652 517.001 253.942 515.877 254.411C513.804 255.293 510.673 256.615 500.934 257.806C485.149 259.73 471.312 253.571 458.484 247.108C454.682 245.195 450.404 242.435 445.455 239.239C433.148 231.286 416.295 220.398 394.906 215.981C369.318 210.711 357.751 213.323 338.577 217.632C335.361 218.349 332.037 219.106 328.362 219.881L328.376 219.878Z" fill="#F5F5F5" fill-opacity="0.4"/>
<path d="M345.778 214.592L345.463 213.105C358.347 210.378 382.645 206.412 400.541 210.529C419.116 214.783 438.545 222.184 451.237 229.857C466.781 239.267 476.809 243.849 484.762 245.188C493.578 246.671 507.698 245.54 507.833 245.53L507.904 246.291L508.519 246.741C508.369 246.946 507.388 247.101 505.577 247.204C504.223 247.285 502.089 247.39 499.652 247.436C495.328 247.528 489.204 247.472 484.529 246.689C476.372 245.319 466.183 240.673 450.464 231.166C437.9 223.572 418.645 216.231 400.218 212.022C382.608 207.976 358.556 211.905 345.795 214.603L345.778 214.592Z" fill="#F5F5F5" fill-opacity="0.4"/>
<path d="M376.777 209.652L376.766 208.129C397.538 207.969 402.363 208.492 416.492 212.41C429.511 216.03 449.189 221.506 462.38 227.818C475.524 234.112 487.46 237.792 492.768 237.191L492.937 238.706C487.267 239.342 475.31 235.696 461.723 229.186C448.656 222.939 429.048 217.484 416.082 213.873C401.984 209.962 397.577 209.486 376.769 209.647L376.777 209.652Z" fill="#F5F5F5" fill-opacity="0.4"/>
<path d="M617.962 327.062C606.73 320.126 595.999 311.925 585.606 302.357C567.66 285.834 552.202 266.711 537.249 248.216C530.799 240.237 524.132 231.983 517.298 223.979L518.46 222.992C525.297 231.01 531.973 239.269 538.44 247.259C569.46 285.641 598.755 321.889 651.432 341.853C679.549 352.504 715.327 347.248 740.39 340.958C757.612 336.725 773.094 331.03 786.745 326.014C796.533 322.421 805.778 319.021 813.941 316.822C819.816 315.302 825.703 313.495 831.392 311.743C853.444 304.981 876.262 297.986 903.504 305.829L903.086 307.287C876.273 299.568 853.685 306.493 831.836 313.193C826.125 314.943 820.224 316.753 814.33 318.285C806.233 320.454 797.024 323.852 787.269 327.431C773.571 332.465 758.048 338.17 740.752 342.427C715.483 348.766 679.379 354.056 650.888 343.268C639.385 338.904 628.449 333.526 617.958 327.048L617.962 327.062Z" fill="#F5F5F5" fill-opacity="0.4"/>
<path d="M627.735 328.325C582.495 300.39 568.602 283.948 543.408 254.135C535.416 244.675 526.348 233.951 514.779 221.072L515.912 220.056C527.498 232.945 536.57 243.683 544.57 253.148C569.662 282.84 583.504 299.214 628.531 327.018L628.675 327.107C662.764 348.016 703.068 344.262 724.064 340.161C746.342 335.925 762.122 328.051 771.552 323.344C774.185 322.031 776.271 320.992 777.832 320.369C782.738 318.686 790.782 315.403 800.1 311.601C820.272 303.372 845.374 293.134 856.977 291.531C874.507 289.827 895.763 293.374 898.129 293.789C898.098 293.781 897.937 293.776 897.764 293.846L898.343 295.249C898.138 295.334 897.979 295.306 897.873 295.288C895.525 294.884 874.458 291.372 857.16 293.043C845.784 294.621 820.78 304.814 800.687 313.01C791.342 316.818 783.279 320.113 778.372 321.796C776.905 322.383 774.846 323.415 772.238 324.707C762.743 329.445 746.845 337.375 724.36 341.661C708.455 344.768 692.075 345.619 676.988 344.129C658.416 342.287 641.886 337.004 627.88 328.415L627.735 328.325Z" fill="#F5F5F5" fill-opacity="0.4"/>
<path d="M614.598 315.018C603.043 307.883 594.088 301.354 583.518 291.901C568.321 278.274 549.058 257.87 518.89 225.702L520.003 224.662C550.142 256.8 569.385 277.18 584.536 290.766C599.508 304.149 611.231 311.658 631.872 323.416C654.974 336.307 680.203 338.276 697.298 337.655C719.381 336.858 735.768 331.769 741.976 328.892L742.028 328.865C751.393 325.328 766.495 317.012 782.475 308.205C795.97 300.777 809.925 293.081 820.559 288.271C843.23 278.659 862.844 271.848 891.528 278.536L891.18 280.013C862.873 273.417 844.304 279.851 821.17 289.659C810.611 294.445 796.686 302.112 783.218 309.533C767.205 318.355 752.065 326.695 742.602 330.277C734.141 334.196 716.883 338.466 697.373 339.171C680.084 339.801 654.557 337.801 631.151 324.734C624.954 321.201 619.56 318.059 614.634 315.017L614.598 315.018Z" fill="#F5F5F5" fill-opacity="0.4"/>
<path d="M616.953 312.288C612.554 309.572 608.262 306.722 604.042 303.81C578.581 286.478 560.835 268.186 533.967 240.513C527.263 233.611 520.335 226.465 512.498 218.523L513.582 217.453C521.427 225.4 528.361 232.538 535.06 239.448C561.861 267.057 579.558 285.295 604.905 302.545C633.966 322.594 666.74 339.694 709.48 329.158C740.083 321.318 759.348 308.239 777.973 295.587C784.046 291.463 790.333 287.2 796.903 283.183C821.905 267.876 848.862 253.588 879.298 261.417L878.919 262.887C849.057 255.213 822.419 269.346 797.69 284.48C791.149 288.468 784.88 292.719 778.821 296.84C760.082 309.562 740.712 322.717 709.842 330.627C672.745 339.77 643.119 328.422 616.955 312.266L616.953 312.288Z" fill="#F5F5F5" fill-opacity="0.4"/>
<path d="M610.724 304.199C586.015 288.942 569.495 273.252 535.55 241.032C531.136 236.837 526.423 232.364 521.361 227.581L522.408 226.476C527.47 231.259 532.183 235.732 536.597 239.927C575.266 276.639 591.278 291.839 622.578 309.403C659.172 330.061 699.983 331.462 726.555 312.964C735.652 306.605 744.279 299.791 752.616 293.199C770.634 278.962 787.655 265.52 808.986 256.326C837.924 243.99 871.101 243.686 877.453 243.754L877.592 243.757L877.604 244.481L877.841 245.239C877.726 245.273 877.667 245.272 877.434 245.269C871.127 245.206 838.232 245.508 809.579 257.726C788.43 266.833 771.49 280.219 753.554 294.401C745.198 301.005 736.552 307.831 727.42 314.227C713.713 323.768 696.291 328.324 677.057 327.401C658.668 326.518 639.577 320.758 621.825 310.737C617.905 308.539 614.224 306.372 610.719 304.208L610.724 304.199Z" fill="#F5F5F5" fill-opacity="0.4"/>
<path d="M608.956 299.64C590.322 288.134 571.493 271.653 541.46 245.375C536.21 240.781 530.62 235.884 524.619 230.662L525.619 229.517C531.621 234.739 537.22 239.642 542.469 244.235C592.693 288.176 611.485 304.622 650.493 316.251C669.759 321.919 689.265 321.012 706.893 313.61C719.762 308.205 731.78 299.172 739.036 289.42L739.073 289.36C753.014 273.711 788.558 248.354 804.808 239.549C823.41 230.608 854.869 225.342 874.958 227.792L874.777 229.302C854.942 226.879 823.861 232.086 805.499 240.904C789.385 249.641 754.088 274.809 740.237 290.35C732.824 300.299 720.579 309.509 707.486 315.01C689.532 322.54 669.677 323.479 650.066 317.704C634.166 312.963 621.613 307.444 608.969 299.637L608.956 299.64Z" fill="#F5F5F5" fill-opacity="0.4"/>
<path d="M-60.048 147.823L-59.5307 145.863C-21.6969 155.815 12.707 150.157 41.9813 144.069C56.3287 140.953 70.7848 137.374 84.7646 133.901C102.734 129.448 119.716 125.244 135.806 122.122C165.141 116.66 183.515 116.405 199.233 121.233C214.557 125.936 226.911 135.527 244.011 149.612L242.725 151.181C208.233 122.76 193.396 113.48 136.184 124.118C120.154 127.218 103.2 131.416 85.2522 135.871C71.2555 139.334 56.7888 142.929 42.4054 146.047C12.8939 152.176 -21.7832 157.877 -60.0427 147.815L-60.048 147.823Z" fill="#F5F5F5" fill-opacity="0.4"/>
<path d="M444.884 331.675C441.03 329.295 437.414 326.604 434.012 323.586C417.865 309.349 404.354 296.34 392.435 284.867C356.027 249.822 334.058 228.663 296.918 231.633L296.753 229.615C334.801 226.583 357.029 247.972 393.836 283.416C405.738 294.88 419.237 307.869 435.351 322.086C451.85 336.705 473.797 343.664 502.451 343.34C521.542 343.105 542.281 339.458 565.845 332.207C593.944 323.455 617.178 329.892 625.855 333.064C626.029 333.125 626.142 333.171 626.19 333.188L625.92 334.044L625.993 335.182C625.758 335.202 625.653 335.161 625.145 334.976C616.65 331.869 593.938 325.578 566.429 334.154C542.662 341.468 521.746 345.135 502.461 345.38C479.147 345.639 460.167 341.147 444.86 331.695L444.884 331.675Z" fill="#F5F5F5" fill-opacity="0.4"/>
<path d="M-210.613 193.463C-211.651 192.822 -212.693 192.167 -213.735 191.477C-234.333 178.088 -258.42 155.657 -283.418 126.611C-336.096 65.5938 -376.316 -5.70116 -395.601 -42.7608L-393.802 -43.6949C-374.555 -6.70611 -334.432 64.423 -281.885 125.29C-257.014 154.198 -233.067 176.495 -212.631 189.784C-189.557 204.796 -169.461 209.366 -151.186 203.715C-136.942 199.395 -123.995 194.873 -111.47 190.501C-90.2264 183.087 -70.1506 176.08 -49.5347 172.309C-16.2969 165.837 17.9977 167.398 61.6522 177.383L61.1965 179.358C17.8274 169.443 -16.2064 167.879 -49.1656 174.3C-69.6492 178.046 -89.6424 185.034 -110.807 192.415C-123.345 196.79 -136.306 201.315 -150.592 205.645C-168.631 211.219 -188.299 207.231 -210.608 193.455L-210.613 193.463Z" fill="#F5F5F5" fill-opacity="0.4"/>
<path d="M-148.565 108.948C-184.02 87.055 -216.944 57.6748 -246.493 21.5526L-244.922 20.2658C-172.842 108.39 -98.5004 135.808 -48.8449 148.771C-32.7683 153.15 -17.2313 156.539 -2.20061 159.815C38.4617 168.669 73.579 176.321 97.3558 199.16C129.257 229.225 161.505 244.131 198.818 246.039C232.729 247.917 272.86 239.589 321.501 220.58C362.527 204.732 401.348 203.341 443.685 216.202C478.792 227.068 516.728 247.779 566.716 283.347L565.544 284.998C515.747 249.559 477.982 228.931 443.102 218.135C401.226 205.404 362.823 206.783 322.244 222.461C273.323 241.579 232.914 249.958 198.713 248.055C179.861 247.086 162.457 242.838 145.526 235.063C128.424 227.206 112.216 215.94 95.9581 200.624C72.5895 178.19 37.7323 170.593 -2.63407 161.792C-17.687 158.514 -33.2463 155.124 -49.3706 150.726C-84.6225 141.522 -115.855 128.606 -144.848 111.208C-146.092 110.464 -147.34 109.705 -148.574 108.943L-148.565 108.948Z" fill="#F5F5F5" fill-opacity="0.4"/>
<path d="M-181.293 -88.6591C-211.95 -107.589 -240.237 -130.698 -263.878 -156.403L-262.385 -157.773C-225.139 -117.273 -176.279 -83.2473 -124.812 -61.9505C-80.9728 -43.4712 -40.4965 -35.895 -3.28072 -30.4615C27.4343 -25.9394 60.2398 -14.5438 91.6046 2.49678C120.443 18.1656 144.9 36.9342 160.483 55.3598L158.933 56.671C130.284 22.7848 63.5911 -18.5624 -3.56877 -28.4533C-40.9129 -33.9074 -81.5484 -41.5113 -125.591 -60.0807C-144.662 -67.9667 -163.378 -77.6079 -181.288 -88.6676L-181.293 -88.6591Z" fill="#F5F5F5" fill-opacity="0.4"/>
<path d="M203.632 90.0314C201.267 88.5708 199.027 86.9643 196.959 85.1936L198.273 83.6547C214.581 97.6148 242.369 101.376 257.479 102.373C278.517 103.799 301.651 101.642 316.402 96.8822C330.594 91.695 362.599 84.6497 392.282 91.167C409.542 95.2087 423.881 103.393 436.127 116.184C450.996 131.713 462.993 154.024 472.823 184.375L470.899 184.997C453.133 130.117 428.754 101.783 391.84 93.1389C362.619 86.7304 331.093 93.6841 317.074 98.8014C301.823 103.723 278.961 105.86 257.355 104.4C243.884 103.51 220.496 100.445 203.641 90.0366L203.632 90.0314Z" fill="#F5F5F5" fill-opacity="0.4"/>
<path d="M-248.619 20.3335C-251.334 18.6575 -254.042 16.9146 -256.749 15.1135C-302.341 -14.5553 -351.395 -66.1774 -381.701 -116.413L-379.964 -117.456C-349.802 -67.4623 -300.996 -16.0869 -255.637 13.4263C-219.206 37.7556 -182.142 49.9825 -156.478 46.1441C-148.451 44.9071 -140.394 43.5469 -131.872 42.0984C-117.25 39.6215 -102.135 37.0496 -83.866 34.5678C-51.0767 30.04 -13.8879 26.5717 29.8553 23.9657C83.9773 21.1869 127.416 37.6321 154.336 51.9163C169.945 60.2504 183.883 69.997 194.659 80.1063C205.09 89.8974 212.141 99.5869 215.019 108.134C221.579 127.546 235.856 145.517 253.222 156.241C253.358 156.325 253.486 156.403 253.622 156.487C269.499 166.291 296.402 175.559 334.847 164.556C368.315 155.864 403.039 156.75 435.283 167.094C467.205 177.333 496.033 196.615 518.671 222.84C526.11 231.348 533.414 240.97 541.151 251.166C557.079 272.155 575.145 295.945 598.516 314.643C621.762 333.698 670.805 363.183 738.257 346.658C766.414 339.41 786.54 333.351 802.705 328.489C818.225 323.816 829.444 320.436 840.441 318.177C862.579 313.313 881.773 313.671 909.443 316.007L909.274 318.03C881.797 315.707 862.763 315.354 840.84 320.139C829.911 322.382 818.734 325.752 803.269 330.412C787.085 335.285 766.94 341.357 738.733 348.609C711.632 355.25 684.734 355.071 658.767 348.075C636.68 342.123 615.394 331.106 597.222 316.206C573.662 297.356 555.521 273.461 539.512 252.375C531.798 242.217 524.506 232.614 517.121 224.151C471.53 171.318 401.891 149.225 335.369 166.489C296.243 177.682 268.775 168.207 252.557 158.192C252.421 158.108 252.285 158.024 252.149 157.94C234.4 146.98 219.809 128.604 213.096 108.756C207.297 91.5772 183.851 69.9537 153.378 53.6758C126.69 39.5112 83.6204 23.2113 29.9636 25.96C-13.7076 28.5635 -50.8602 32.0306 -83.586 36.5506C-101.819 39.0312 -116.915 41.5913 -131.529 44.0734C-140.059 45.5167 -148.121 46.8854 -156.162 48.1257C-180.388 51.7475 -214.447 41.4113 -248.6 20.3218L-248.619 20.3335Z" fill="#F5F5F5" fill-opacity="0.4"/>
</svg>
