<svg width="879" height="354" viewBox="0 0 879 354" fill="none" xmlns="http://www.w3.org/2000/svg">
<path d="M1130.9 173.774C1156.85 157.755 1185.03 129.95 1216.9 88.9767C1238.82 60.7369 1258.6 31.1848 1277.74 2.60662C1283.27 -5.64852 1288.98 -14.1804 1294.57 -22.4192L1293.32 -23.2762C1287.72 -15.0373 1282.01 -6.50545 1276.48 1.74969C1257.37 30.3036 1237.59 59.8367 1215.7 88.0332C1182.03 131.346 1152.51 159.868 1125.45 175.238C1093.84 192.934 1073.96 190.027 1057.19 184.236C1049.71 181.517 1042.58 178.071 1035.69 174.743C1026.38 170.245 1017.58 165.992 1008.64 163.804C976.381 155.623 925.977 159.093 889.555 165.071L889.803 166.575C926.065 160.626 976.231 157.15 1008.27 165.279C1017.06 167.431 1025.79 171.653 1035.03 176.113C1041.97 179.46 1049.13 182.926 1056.69 185.673C1073.81 191.576 1094.08 194.552 1126.21 176.558C1127.77 175.672 1129.35 174.736 1130.93 173.759L1130.9 173.774Z" fill="#F5F5F5" fill-opacity="0.4"/>
<path d="M1067.42 92.8282C1097.19 74.4445 1125.47 51.0579 1147.52 26.5331L1146.39 25.5167C1123.22 51.2821 1093.13 75.7963 1061.7 94.5135C1029.94 113.444 997.746 125.777 968.601 130.176C937.374 135.355 902.274 127.788 871.302 121.103C860.117 118.596 849.439 116.035 840.009 113.783C822.838 109.672 809.278 106.421 802.007 105.705C799.882 105.442 797.378 105.06 794.725 104.665C783.268 102.937 767.579 100.578 750.311 102.192C723.896 104.693 702.165 115.714 683.882 135.877L685.007 136.899C703.024 117.029 724.433 106.172 750.447 103.706C767.523 102.106 783.113 104.455 794.492 106.173C797.151 106.576 799.663 106.952 801.829 107.225C809.023 107.93 822.542 111.171 839.649 115.275C849.084 117.535 859.771 120.091 870.97 122.601C902.074 129.31 937.331 136.921 968.831 131.691C998.158 127.262 1030.54 114.858 1062.47 95.8362C1064.12 94.853 1065.77 93.856 1067.4 92.8473L1067.42 92.8282Z" fill="#F5F5F5" fill-opacity="0.4"/>
<path d="M1063.21 99.7475C1071.87 94.4042 1080.05 88.9142 1087.94 83.1639C1110.95 66.4015 1131.88 47.0742 1151.92 24.0553L1150.77 23.0579C1113.17 66.2428 1072.56 96.4655 1014.98 124.126C991.162 135.954 963.906 141.702 931.653 141.696C903.956 141.57 875.103 137.384 848.222 129.596C844.697 128.588 841.156 127.555 837.606 126.526C788.934 112.379 738.593 97.7566 699.126 126.323L700.018 127.559C738.896 99.4267 788.854 113.944 837.18 127.988C840.73 129.016 844.271 130.05 847.797 131.058C874.812 138.892 903.805 143.096 931.65 143.214C964.15 143.22 991.621 137.422 1015.65 125.49C1033.33 116.992 1048.91 108.571 1063.2 99.7443L1063.21 99.7475Z" fill="#F5F5F5" fill-opacity="0.4"/>
<path d="M1074.5 82.4042C1098.76 67.4198 1122.34 49.1118 1143.64 28.6511L1142.58 27.5515C1083.1 84.7076 1017.82 114.523 979.498 118.722C959.144 121.465 932.974 117.646 910.052 113.547C887.563 109.464 865.959 104.341 855.408 101.301C843.87 97.7659 822.674 92.7899 800.937 90.4398C781.225 88.2852 753.407 87.2579 732.808 94.63C697.201 107.332 686.394 126.546 685.281 128.702L686.598 129.464L686.633 129.407C687.724 127.311 698.265 108.579 733.324 96.0745C753.653 88.7984 781.233 89.8201 800.782 91.958C822.41 94.3043 843.504 99.249 854.987 102.771C865.593 105.824 887.252 110.961 909.797 115.057C932.837 119.175 959.148 123.014 979.698 120.244C1000.43 117.975 1027.09 108.572 1054.78 93.7785C1061.38 90.2537 1067.97 86.4563 1074.51 82.416L1074.5 82.4042Z" fill="#F5F5F5" fill-opacity="0.4"/>
<path d="M1086.41 69.4179C1106.7 56.8871 1124.88 42.6648 1139.27 30.9108L1138.31 29.7311C1119.88 44.7799 1095.23 63.9027 1067.9 78.2589C1040.14 92.8968 1011.42 101.726 980.079 105.236C947.339 108.363 920.166 102.424 895.674 95.5352C885.862 92.7208 876.469 89.7294 867.395 86.8352C853.732 82.4852 840.821 78.3639 829.156 75.7652C791.687 67.2751 742.648 63.2497 695.58 107.886L696.627 108.991C743.169 64.8553 791.729 68.8474 828.827 77.2495C840.437 79.8352 853.315 83.9415 866.942 88.2903C876.03 91.1878 885.422 94.1791 895.276 97.0033C919.911 103.933 947.244 109.903 980.251 106.751C1011.8 103.218 1040.7 94.3425 1068.62 79.6132C1074.7 76.4142 1080.65 72.9886 1086.42 69.4211L1086.41 69.4179Z" fill="#F5F5F5" fill-opacity="0.4"/>
<path d="M1105.84 52.2449C1114.9 46.6547 1123.92 40.5691 1132.89 33.9799L1131.99 32.7497C1096.67 58.6634 1060.69 76.8725 1025.06 86.86C995.312 95.2066 966.571 97.2166 944.153 92.5255C929.914 89.3182 915.186 83.2631 899.6 76.8452C890.527 73.1157 881.156 69.2647 871.565 65.8557C840.66 54.6166 814.81 50.7051 792.54 53.9257C767.659 57.3134 750.424 61.8915 736.669 68.775C724.053 75.0848 714.582 83.1776 702.495 95.0256L703.553 96.1115C727.087 73.0702 742.63 62.25 792.743 55.4341C814.769 52.2578 840.374 56.133 871.051 67.2893C880.615 70.6918 889.972 74.5394 899.026 78.2572C914.681 84.6914 929.461 90.7732 943.838 94.0131C966.512 98.7575 995.503 96.7341 1025.49 88.3262C1052.23 80.8293 1079.15 68.7267 1105.84 52.2449Z" fill="#F5F5F5" fill-opacity="0.4"/>
<path d="M1125.52 37.2282L1124.75 35.9192C1045.03 82.921 1003.87 85.575 968.538 84.2612C953.092 82.9627 938.424 74.7201 922.895 65.998C920.323 64.5541 917.666 63.0684 914.992 61.5933C896.921 51.5143 875.143 40.8928 850.614 38.5509C803.936 33.42 788.294 36.333 770.903 44.827L771.569 46.1906C788.694 37.8372 804.152 34.9677 850.467 40.0638C874.728 42.3713 896.329 52.9146 914.263 62.9249C916.937 64.4001 919.594 65.8858 922.161 67.3212C937.836 76.1289 952.641 84.4401 968.449 85.7733C985.181 86.395 1005.74 86.0982 1031.75 79.2281C1059.2 71.9726 1089.88 58.2355 1125.52 37.2145L1125.52 37.2282Z" fill="#F5F5F5" fill-opacity="0.4"/>
<path d="M1019.22 40.086L1019.55 38.6016C999.315 34.0644 983.03 29.6758 968.673 25.8011C950.258 20.8359 934.364 16.5469 916.352 13.6244C883.046 8.24047 844.067 6.38321 823.676 9.21964C802.177 12.2229 797.707 15.1476 797.67 15.1824L798.528 16.4389C798.528 16.4389 803.303 13.608 823.892 10.7313C844.155 7.91542 882.94 9.76313 916.119 15.1315C934.054 18.043 949.915 22.317 968.289 27.2724C982.66 31.1504 998.958 35.5423 1019.22 40.086Z" fill="#F5F5F5" fill-opacity="0.4"/>
<path d="M986.751 35.3585L987.025 33.8611C975.026 31.692 964.012 29.6544 954.282 27.8474C920.735 21.6364 896.498 17.14 871.398 14.6922C839.024 11.7302 801.736 18.7597 784.573 24.1979L785.031 25.6431C802.075 20.2424 839.103 13.2676 871.251 16.2051C896.287 18.6452 920.497 23.1351 954.008 29.3448C963.733 31.1433 974.751 33.1894 986.751 35.3585Z" fill="#F5F5F5" fill-opacity="0.4"/>
<path d="M930.972 29.3833L931.142 27.8684C921.149 26.7405 912.467 25.7193 904.817 24.8257C870.569 20.8104 856.393 19.151 835.785 20.8171C811.234 22.7788 796.922 25.9046 765.466 39.5813L766.072 40.9816C797.333 27.3898 811.548 24.2772 835.912 22.3368C856.373 20.6795 870.505 22.3428 904.647 26.3406C912.303 27.2428 920.979 28.2554 930.986 29.3866L930.972 29.3833Z" fill="#F5F5F5" fill-opacity="0.4"/>
<path d="M657.565 154.126C666.669 148.504 675.756 140.837 685.782 130.637L684.699 129.567C659.208 155.474 639.877 164.919 610.798 165.657C600.384 165.788 589.648 162.792 578.269 159.629C557.158 153.743 533.238 147.076 500.197 155.502C453.536 166.956 440.367 180.213 438.211 182.754L438.158 182.822L438.643 183.263L439.1 184.004C439.21 183.935 439.271 183.863 439.364 183.747C441.476 181.267 454.36 168.328 500.568 156.978C533.214 148.654 556.936 155.267 577.858 161.093C589.338 164.288 600.175 167.316 610.823 167.182C628.886 166.723 643.236 162.974 657.556 154.131L657.565 154.126Z" fill="#F5F5F5" fill-opacity="0.4"/>
<path d="M660.732 149.244C669.581 143.78 678.476 136.583 687.749 127.484L686.682 126.403C663.257 149.412 642.228 160.141 618.502 161.194C601.26 161.839 589.278 157.262 576.594 152.424C561.553 146.68 545.997 140.749 520.512 143.369C480.11 147.221 455.225 157.815 439.827 177.702L441.024 178.631C456.144 159.093 480.7 148.69 520.657 144.878C545.79 142.299 561.166 148.165 576.048 153.843C588.876 158.744 601.001 163.362 618.558 162.711C633.258 162.06 646.931 157.766 660.724 149.249L660.732 149.244Z" fill="#F5F5F5" fill-opacity="0.4"/>
<path d="M665.603 143.086C673.729 138.069 681.878 131.814 689.989 124.373L688.959 123.258C657.598 152.049 626.827 162.341 597.509 153.824C584.284 150.05 574.703 146.505 566.255 143.389C548.487 136.825 537.754 132.863 514.597 134.74C481.804 137.478 460.708 143.664 443.185 168.447L444.432 169.323C461.607 145.025 482.391 138.961 514.724 136.26C537.548 134.413 548.159 138.332 565.728 144.819C574.208 147.951 583.812 151.493 597.089 155.294C611.925 159.602 627.4 159.12 643.065 153.865C650.532 151.359 658.053 147.76 665.6 143.1L665.603 143.086Z" fill="#F5F5F5" fill-opacity="0.4"/>
<path d="M672.054 136.365C677.687 132.886 683.648 128.665 690.141 123.515L689.194 122.325C661.864 143.997 644.072 149.119 620.795 150.975C607.447 151.931 594.744 145.824 581.298 139.353C572.25 134.997 562.888 130.495 552.912 128.005C523.166 120.411 496.217 126.674 486.01 129.709C467.634 135.239 456.635 144.51 450.637 151.317L451.773 152.32C457.636 145.655 468.406 136.584 486.437 131.162C496.521 128.155 523.153 121.97 552.537 129.471C562.367 131.933 571.658 136.398 580.635 140.715C594.277 147.276 607.149 153.466 620.912 152.478C638.954 151.033 653.738 147.663 672.057 136.351L672.054 136.365Z" fill="#F5F5F5" fill-opacity="0.4"/>
<path d="M686.975 124.671C688.218 123.904 689.468 123.131 690.755 122.302L689.939 121.019C647.399 148.075 630.444 146.063 615.486 144.299C606.959 143.053 598.006 137.746 587.647 131.59C571.705 122.124 553.63 111.39 530.948 112.115C493.315 112.799 484.476 116.13 463.058 130.073L463.89 131.345C485.357 117.384 493.501 114.318 530.995 113.637C553.238 112.925 571.109 123.538 586.879 132.898C597.38 139.131 606.453 144.517 615.297 145.802C630.07 147.551 646.738 149.517 686.984 124.665L686.975 124.671Z" fill="#F5F5F5" fill-opacity="0.4"/>
<path d="M690.67 121.214C690.994 121.014 691.325 120.809 691.649 120.61L690.85 119.316C668.352 133.491 641.14 140.927 621.544 138.255C611.047 136.673 601.322 130.174 591.024 123.299C578.155 114.697 563.573 104.956 543.87 102.055C527.925 99.549 512.727 100.613 498.707 105.239C488.005 108.768 478.218 114.236 469.617 121.509L470.6 122.665C484.514 110.9 508.49 98.034 543.637 103.562C563.003 106.413 577.442 116.054 590.172 124.565C600.614 131.539 610.478 138.13 621.324 139.765C640.985 142.445 668.085 135.172 690.667 121.228L690.67 121.214Z" fill="#F5F5F5" fill-opacity="0.4"/>
<path d="M691.345 119.375C691.787 119.102 692.23 118.829 692.667 118.547L691.843 117.27C675.481 127.773 656.406 132.511 635.095 131.403C622.648 130.756 610.135 126.06 598.88 117.825C596.856 116.337 595.039 114.955 593.285 113.617C585.877 107.978 580.03 103.515 567.322 98.1045C549.46 90.5527 526.797 88.0343 514.617 92.253L515.114 93.6856C526.985 89.5756 549.171 92.0828 566.729 99.5047C579.256 104.85 585.044 109.256 592.365 114.831C594.134 116.172 595.956 117.562 597.993 119.054C609.484 127.461 622.28 132.252 635.02 132.918C656.078 134.018 675.017 129.458 691.345 119.375Z" fill="#F5F5F5" fill-opacity="0.4"/>
<path d="M693.111 117.497L692.406 116.146C669.548 128.157 644.872 126.776 629.408 121.469C620.257 118.223 612.232 113.259 603.732 108.001C590.757 99.9698 577.345 91.6683 559.286 89.6211L559.117 91.136C576.836 93.1463 590.109 101.357 602.932 109.294C611.5 114.604 619.596 119.607 628.908 122.906C644.682 128.315 669.815 129.732 693.111 117.497Z" fill="#F5F5F5" fill-opacity="0.4"/>
<path d="M693.555 116.33L693.066 114.892C673.992 121.441 666.192 120.78 651.73 118.792C632.476 116.084 617.196 107.385 607.77 100.571L606.875 101.805C616.436 108.724 631.947 117.551 651.511 120.302C667.318 122.471 675.039 122.698 693.555 116.33Z" fill="#F5F5F5" fill-opacity="0.4"/>
<path d="M694.001 115.15L693.653 113.672C667.761 119.858 654.835 114.97 646.292 111.737C635.921 107.751 627.503 103.253 626.577 102.744L626.068 102.471L625.64 102.864L626.182 103.399L625.82 104.069C626.779 104.594 635.274 109.138 645.738 113.16C654.467 116.467 667.644 121.458 693.992 115.155L694.001 115.15Z" fill="#F5F5F5" fill-opacity="0.4"/>
<path d="M694.439 113.974L694.214 112.468C671.616 115.88 657.184 109.219 647.128 103.041L646.328 104.334C656.598 110.65 671.353 117.452 694.433 113.966L694.439 113.974Z" fill="#F5F5F5" fill-opacity="0.4"/>
<path d="M937.993 152.802L937.782 151.298C893.015 157.693 868.617 163.309 847.752 172.021C825.299 181.396 806.957 194.65 781.546 213.796C764.945 226.233 743.565 233.312 716.186 235.433C694.121 237.117 674.018 235.016 664.001 233.621C649.828 231.49 637.171 227.552 622.533 222.993C603.806 217.162 582.59 210.554 552.699 206.246L552.479 207.757C582.244 212.049 603.408 218.63 622.08 224.448C636.787 229.023 649.49 232.979 663.782 235.131C673.868 236.542 694.092 238.651 716.3 236.949C743.974 234.811 765.618 227.627 782.464 215.015C834.365 175.903 851.51 165.164 938.007 152.805L937.993 152.802Z" fill="#F5F5F5" fill-opacity="0.4"/>
<path d="M921.734 153.04L921.598 151.526C906.101 152.962 889.427 154.737 870.901 159.243C848.407 164.706 828.902 172.86 811.26 184.165C771.232 209.787 755.918 218.562 727.706 224.453C699.626 230.274 678.773 226.956 650.125 218.801C612.596 208.138 583.158 203.175 562.616 204.036L562.686 205.556C583.066 204.701 612.349 209.642 649.714 220.266C678.6 228.484 699.631 231.823 728.023 225.938C756.487 219.997 771.877 211.175 812.084 185.442C852.639 159.436 895.905 155.426 921.742 153.035L921.734 153.04Z" fill="#F5F5F5" fill-opacity="0.4"/>
<path d="M905.893 151.997L905.757 150.483C904.078 150.638 902.38 150.781 900.666 150.935C875.089 153.178 846.1 155.717 809.019 178.004C764.759 204.711 725.387 218.128 692.026 217.89C676.858 217.478 658.313 212.875 640.383 208.41C613.549 201.744 588.198 195.444 571.828 201.462L572.356 202.888C588.281 197.026 614.587 203.559 640.012 209.884C658.02 214.361 676.652 218.992 691.996 219.402C725.662 219.639 765.284 206.15 809.795 179.299C846.573 157.188 875.376 154.669 900.788 152.446C902.503 152.292 904.2 152.149 905.879 151.994L905.893 151.997Z" fill="#F5F5F5" fill-opacity="0.4"/>
<path d="M892.5 150.312L892.44 148.787C863.015 149.973 832.839 157.9 807.474 171.106C780.696 185.373 725.635 207.585 691.854 206.514C679.331 206.067 665.249 203.703 650.347 201.211C626.345 197.192 601.519 193.036 583.622 197.494L583.992 198.969C601.582 194.584 626.248 198.709 650.095 202.706C665.052 205.212 679.184 207.58 691.801 208.028C725.884 209.112 781.272 186.781 808.183 172.444C833.355 159.345 863.298 151.479 892.504 150.298L892.5 150.312Z" fill="#F5F5F5" fill-opacity="0.4"/>
<path d="M884.376 148.994L884.365 147.473C859.771 147.651 845.468 152.029 827.364 157.579C825.03 158.291 822.64 159.027 820.169 159.765C813.807 161.719 805.858 165.253 796.665 169.342C774.895 179.024 745.089 192.27 713.296 194.284C688.658 195.877 668.667 194.012 651.035 192.371C631.619 190.562 614.856 188.996 596.765 192.246L597.029 193.74C614.913 190.536 631.585 192.088 650.888 193.884C668.583 195.533 688.624 197.402 713.387 195.803C745.453 193.773 775.406 180.46 797.28 170.737C806.438 166.669 814.34 163.153 820.61 161.221C823.089 160.477 825.479 159.742 827.813 159.029C845.799 153.517 860.001 149.166 884.376 148.994Z" fill="#F5F5F5" fill-opacity="0.4"/>
<path d="M870.306 149.62L870.368 148.101C852.192 147.407 828.542 141.044 807.667 135.446C800.343 133.482 793.423 131.62 787.159 130.117L786.224 129.859C768.41 124.935 721.107 111.845 680.489 138.396L681.322 139.668C721.355 113.502 768.187 126.459 785.817 131.333L786.78 131.597C793.044 133.1 799.95 134.958 807.269 136.914C828.218 142.537 851.959 148.914 870.306 149.62Z" fill="#F5F5F5" fill-opacity="0.4"/>
<path d="M861.295 150.671L861.392 149.154C834.114 147.346 808.727 141.444 788.328 136.693L785.903 136.134C765.315 130.924 730.898 122.218 673.345 144.241L673.889 145.656C730.995 123.803 765.123 132.441 785.513 137.597L785.568 137.61L787.994 138.169C808.442 142.925 833.895 148.857 861.303 150.666L861.295 150.671Z" fill="#F5F5F5" fill-opacity="0.4"/>
<path d="M856.742 151.426L856.731 149.904C839.894 150.065 814.991 146.849 790.914 143.735C780.429 142.382 769.599 140.983 759.795 139.915C727.29 136.399 680.768 144.558 656.094 158.102L656.825 159.437C681.267 146.013 727.392 137.934 759.635 141.424C769.424 142.49 780.254 143.888 790.725 145.238C814.861 148.352 839.819 151.58 856.751 151.42L856.742 151.426Z" fill="#F5F5F5" fill-opacity="0.4"/>
<path d="M849.956 152.807L849.937 151.291C816.964 151.719 777.636 148.784 757.126 146.993C735.598 145.019 697.554 147.379 638.571 169.827L639.107 171.247C697.826 148.904 735.623 146.544 756.993 148.509C777.539 150.301 816.925 153.236 849.956 152.807Z" fill="#F5F5F5" fill-opacity="0.4"/>
<path d="M842.637 154.659L842.457 153.148C824.247 155.272 807.015 154.983 788.767 154.686C769.993 154.373 750.575 154.047 729.509 156.513C705.863 159.255 671.419 165.598 632.524 174.384C631.48 174.617 630.719 174.793 630.622 174.806L630.76 175.544L630.096 175.954C630.289 176.266 631.214 176.235 632.872 175.862C671.71 167.099 706.102 160.765 729.698 158.018C750.667 155.565 770.034 155.887 788.759 156.195C807.062 156.506 824.338 156.791 842.654 154.648L842.637 154.659Z" fill="#F5F5F5" fill-opacity="0.4"/>
<path d="M832.548 157.562L832.426 156.051C817.465 157.251 803.656 162.334 787.671 168.232C779.752 171.148 771.576 174.163 762.204 177.142C733.955 186.076 693.403 186.659 680.159 186.128C676.352 185.94 672.098 185.617 667.595 185.272C649.537 183.893 627.068 182.184 608.047 187.03L608.426 188.5C627.206 183.721 649.54 185.42 667.484 186.786C672.001 187.135 676.269 187.461 680.097 187.647C693.427 188.184 734.212 187.598 762.675 178.59C772.078 175.604 780.271 172.579 788.207 169.653C804.088 163.795 817.801 158.747 832.553 157.571L832.548 157.562Z" fill="#F5F5F5" fill-opacity="0.4"/>
<path d="M824.981 158.498L824.836 156.989C804.898 158.864 792.994 162.254 776.529 166.956L774.48 167.54C755.357 173.001 725.217 177.674 704.372 178.405C693.906 178.756 683.359 178.863 673.165 178.952C646.44 179.201 623.362 179.418 613.841 184.099L614.507 185.462C623.714 180.94 646.639 180.723 673.176 180.474C683.378 180.379 693.93 180.281 704.419 179.927C725.366 179.192 755.671 174.5 774.889 169.003L776.938 168.419C793.325 163.742 805.168 160.366 824.972 158.503L824.981 158.498Z" fill="#F5F5F5" fill-opacity="0.4"/>
<path d="M829.282 157.887L829.212 156.367C787.443 158.289 754.47 161.42 731.222 165.645C718.604 167.936 695.346 170.298 672.857 172.573C652.808 174.611 633.87 176.526 624.756 178.193L625.035 179.69C634.087 178.038 652.997 176.116 673.016 174.085C695.535 171.803 718.824 169.434 731.495 167.133C754.676 162.915 787.573 159.795 829.285 157.873L829.282 157.887Z" fill="#F5F5F5" fill-opacity="0.4"/>
<path d="M651.449 161.37L650.718 160.035C611.994 181.373 562.121 206.069 519.818 207.757L519.874 209.274C562.499 207.576 612.583 182.784 651.457 161.365L651.449 161.37Z" fill="#F5F5F5" fill-opacity="0.4"/>
<path d="M642.002 165.523L641.395 164.122C586.434 188.001 582.174 189.268 558.547 196.323L557.773 196.555C533.775 203.617 497.756 209.428 497.41 209.477L497.522 210.23L496.982 210.763C497.189 210.972 499.423 210.706 503.681 209.964C507.121 209.368 512.53 208.402 518.784 207.185C529.817 205.05 545.61 201.715 558.205 198.015L558.979 197.784C582.676 190.709 586.944 189.437 642.002 165.523Z" fill="#F5F5F5" fill-opacity="0.4"/>
<path d="M631.456 168.697L630.929 167.271C627.842 168.402 624.324 169.728 620.264 171.26C596.049 180.371 555.511 195.613 529.52 199.239C500.926 203.333 478.36 211.744 463.435 217.304L460.79 218.292L461.317 219.717L463.963 218.73C478.831 213.192 501.302 204.817 529.731 200.742C555.887 197.097 596.52 181.819 620.8 172.68C624.866 171.156 628.384 169.83 631.456 168.697Z" fill="#F5F5F5" fill-opacity="0.4"/>
<path d="M625.174 169.943L624.686 168.505C572.916 186.228 513.311 198.342 496.279 201.631C462.988 208.072 443.444 223.338 439.865 226.335L439.782 226.41L440.221 226.95L440.558 227.705C440.662 227.665 440.703 227.616 440.845 227.504C444.37 224.552 463.646 209.5 496.571 203.131C513.634 199.835 573.323 187.705 625.188 169.946L625.174 169.943Z" fill="#F5F5F5" fill-opacity="0.4"/>
<path d="M619.178 170.719L618.746 169.259C590.116 177.805 538.531 189.127 514.599 192.128C473.33 197.584 444.888 210.622 430.04 230.886L431.266 231.786C445.863 211.877 473.96 199.041 514.793 193.642C538.783 190.64 590.492 179.289 619.178 170.719Z" fill="#F5F5F5" fill-opacity="0.4"/>
<path d="M614.236 171.091L613.866 169.616C586.732 176.322 551.698 184.299 521.364 186.411C490.381 188.596 471.758 193.02 452.664 202.754C436.865 210.781 426.45 220.598 420.492 227.414C414.096 234.737 411.148 240.507 411.133 240.845L412.657 240.915L411.895 240.88L412.595 241.176C412.688 240.966 423.45 219.3 453.347 204.107C472.248 194.48 490.703 190.089 521.464 187.924C551.915 185.81 587.033 177.817 614.222 171.088L614.236 171.091Z" fill="#F5F5F5" fill-opacity="0.4"/>
<path d="M635.533 173.548C650.262 164.454 664.343 154.101 677.226 142.855L676.225 141.711C632.751 179.662 574.684 207.02 535.007 208.239L535.054 209.761C554.303 209.169 578.796 202.354 604.024 190.584C614.708 185.597 625.281 179.879 635.542 173.543L635.533 173.548Z" fill="#F5F5F5" fill-opacity="0.4"/>
<path d="M609.142 171.216L608.833 169.726C579.386 175.922 553.221 178.504 527.919 181C518.759 181.908 509.275 182.84 499.867 183.936C464.581 188.002 446.225 195.905 418.039 219.139C399.834 234.118 393.208 250.397 393.237 251.167L393.993 251.135L394.721 251.344C394.771 251.195 400.666 235.391 419 220.297C446.924 197.284 465.094 189.46 500.037 185.43C509.436 184.339 518.907 183.403 528.066 182.496C553.408 179.987 579.609 177.406 609.14 171.194L609.142 171.216Z" fill="#F5F5F5" fill-opacity="0.4"/>
<path d="M605.927 171.168L605.702 169.662C586.201 172.607 538.39 176.203 522.655 177.14C518.609 177.382 514.475 177.443 510.09 177.518C494.81 177.763 477.494 178.042 457.461 186.217C431.898 196.608 408.918 215.675 399.707 225.958C393.45 232.936 388.228 241.685 384.946 247.789C383.076 251.271 381.634 254.265 380.758 256.158C379.63 258.594 379.151 259.951 379.323 260.229L380.606 259.413L379.959 259.813L380.683 260.071C380.747 259.89 389.048 240.12 400.835 226.966C409.948 216.79 432.707 197.918 458.031 187.616C477.805 179.555 494.968 179.275 510.109 179.034C514.508 178.963 518.659 178.891 522.742 178.65C538.498 177.711 586.382 174.117 605.931 171.154L605.927 171.168Z" fill="#F5F5F5" fill-opacity="0.4"/>
<path d="M601.771 170.985L601.702 169.464C594.72 169.768 588.088 170.067 581.756 170.357C555.897 171.551 535.475 172.491 515.839 171.888C495.804 171.284 473.619 172.396 447.222 184.5C416.533 198.562 394.301 222.209 390.023 227.766C385.364 233.886 367.891 260.272 364.101 269.476L365.504 270.055C369.249 260.949 386.593 234.773 391.228 228.69C395.196 223.525 417.751 199.678 447.854 185.885C473.966 173.909 495.937 172.812 515.792 173.41C535.486 174.012 555.93 173.071 581.825 171.877C588.157 171.587 594.784 171.28 601.766 170.976L601.771 170.985Z" fill="#F5F5F5" fill-opacity="0.4"/>
<path d="M595.168 170.361L595.157 168.839C577.838 168.98 542.04 168.849 530.458 167.374C517.941 165.889 474.585 165.147 452.944 176.066L453.632 177.428C474.968 166.662 517.885 167.416 530.275 168.886C541.926 170.376 577.818 170.508 595.174 170.369L595.168 170.361Z" fill="#F5F5F5" fill-opacity="0.4"/>
<path d="M593.756 170.186L593.854 168.669C572.159 167.339 561.089 165.571 545.455 162.826C533.6 160.756 522.15 160.505 514.574 160.341C511.753 160.284 509.53 160.223 508.216 160.094L508.069 161.607C509.438 161.749 511.687 161.794 514.543 161.852C522.075 162.02 533.458 162.278 545.203 164.321C560.901 167.074 572.007 168.843 593.779 170.184L593.756 170.186Z" fill="#F5F5F5" fill-opacity="0.4"/>
<path d="M694.737 113.144L694.579 111.631C683.344 112.833 678.248 110.632 671.788 107.84C665.691 105.2 663.471 102.328 663.24 102.012L662.989 101.662L662.561 101.691L662.629 102.448L662.019 102.907C662.284 103.26 664.732 106.426 671.19 109.232C677.855 112.109 683.115 114.385 694.745 113.139L694.737 113.144Z" fill="#F5F5F5" fill-opacity="0.4"/>
<path d="M694.974 112.233L695.049 110.718C689.317 110.438 681.34 107.113 678.308 104.449C675.3 101.804 674.311 100.335 674.3 100.318L673.686 100.733L672.94 100.97C673.027 101.245 674.273 102.92 677.305 105.585C680.591 108.469 688.849 111.926 694.974 112.233Z" fill="#F5F5F5" fill-opacity="0.4"/>
<path d="M695.033 111.339L695.612 109.936C691.901 108.419 684.737 100.984 685.032 98.322L683.522 98.1612C683.102 102.029 691.35 109.829 695.047 111.342L695.033 111.339Z" fill="#F5F5F5" fill-opacity="0.4"/>
<path d="M695.871 108.318L696.814 107.125C693.643 104.616 692.239 98.4787 694.177 95.6017L692.916 94.7586C690.571 98.2513 692.119 105.346 695.871 108.318Z" fill="#F5F5F5" fill-opacity="0.4"/>
<path d="M697.894 105.447C697.042 102.506 699.385 96.4048 703.215 91.5484L702.021 90.6049C698.473 95.0992 695.301 101.971 696.436 105.865L697.902 105.442L697.894 105.447Z" fill="#F5F5F5" fill-opacity="0.4"/>
<path d="M468.603 319.372C470.942 317.928 473.179 316.487 475.345 315.103C482.169 310.737 493.903 299.307 506.319 287.209C522.484 271.457 540.817 253.602 552.396 247.286C554.297 246.253 556.088 245.253 557.795 244.305C574.711 234.929 583.201 230.215 610.946 230.724L610.971 229.204C582.821 228.687 573.672 233.76 557.056 242.975C555.349 243.923 553.561 244.91 551.665 245.951C539.903 252.368 521.5 270.301 505.256 286.115C492.889 298.158 481.203 309.535 474.521 313.826C459.816 323.282 441.523 335.036 410.718 335.947C387.871 336.633 369.279 331.154 351.306 325.857C345.66 324.196 340.342 322.625 334.953 321.264C320.708 317.684 304.236 322.109 301.082 323.034L300.981 323.061L301.17 323.767L301.079 324.552C301.233 324.574 301.32 324.544 301.5 324.492C304.593 323.581 320.709 319.247 334.569 322.735C339.925 324.082 345.243 325.652 350.861 327.307C368.95 332.638 387.662 338.161 410.759 337.461C437.44 336.664 454.83 327.865 468.597 319.364L468.603 319.372Z" fill="#F5F5F5" fill-opacity="0.4"/>
<path d="M608.828 229.881L608.903 228.366C591.576 227.524 576.729 228.3 543.348 246.033C529.63 253.281 516.606 265.649 502.815 278.737C499.434 281.941 495.947 285.258 492.448 288.499C472.5 306.917 454.782 320.173 433.172 325.032C400.619 332.346 379.781 325.551 361.394 319.546C357.476 318.263 353.771 317.06 350.039 316.003C333.439 311.351 318.343 313.092 310.44 315.997L310.968 317.423C318.648 314.596 333.382 312.914 349.627 317.468C353.327 318.51 357.023 319.718 360.922 320.989C379.499 327.053 400.55 333.928 433.503 326.52C455.452 321.581 473.351 308.201 493.483 289.623C496.999 286.371 500.491 283.063 503.875 279.845C517.592 266.827 530.542 254.529 544.075 247.382C577.109 229.828 591.75 229.061 608.841 229.884L608.828 229.881Z" fill="#F5F5F5" fill-opacity="0.4"/>
<path d="M605.239 228.618L605.237 227.092C587.611 227.116 563.476 227.164 531.269 249.825C506.571 267.156 492.063 280.604 479.267 292.467C475.694 295.778 472.324 298.905 468.947 301.906C456.48 313.083 432.13 322.584 405.816 318.665C388.682 316.117 375.015 312.122 365.029 309.215C359.823 307.694 355.71 306.496 352.397 305.85C343.391 304.113 330.508 303.006 320.288 307.601L320.911 308.991C330.773 304.559 343.318 305.651 352.109 307.344C355.345 307.979 359.43 309.17 364.603 310.677C374.628 313.607 388.358 317.61 405.597 320.175C417.789 321.99 430.564 321.095 442.539 317.59C453.258 314.45 462.996 309.284 469.957 303.046C473.333 300.044 476.72 296.907 480.293 293.596C493.052 281.768 507.509 268.352 532.127 251.082C563.941 228.698 587.807 228.652 605.23 228.624L605.239 228.618Z" fill="#F5F5F5" fill-opacity="0.4"/>
<path d="M601.36 227.229L601.363 225.711C588.288 225.663 555.287 227.131 531.321 241.859L531.16 241.959C511.394 254.164 483.283 278.281 471.254 288.588C470.161 289.521 469.211 290.343 468.402 291.031C448.512 308.096 426.309 311.158 411.188 310.729C399.869 310.384 385.926 305.772 374.732 302.071C368.466 299.994 363.061 298.207 359.064 297.443C347.684 295.268 340.631 294.334 328.027 300.284L328.676 301.658C340.879 295.897 347.396 296.762 358.776 298.938C362.669 299.684 368.032 301.461 374.247 303.511C385.533 307.249 399.592 311.896 411.141 312.251C426.528 312.692 449.124 309.564 469.386 292.186C470.187 291.504 471.145 290.677 472.238 289.744C484.27 279.423 512.449 255.264 532.12 243.153C556.423 228.228 591.263 227.188 601.36 227.229Z" fill="#F5F5F5" fill-opacity="0.4"/>
<path d="M599.212 226.452L599.223 224.929C577.05 224.764 557.909 224.619 532.519 236.242C515.056 244.24 497.325 257.798 483.064 268.696C477.362 273.052 472.43 276.826 468.362 279.585C453.173 289.951 435.283 300.986 415.069 300.587C402.922 300.331 390.51 295.666 379.562 291.544C371.755 288.608 365.008 286.075 359.944 285.793C347.658 285.082 341.535 288.299 336.314 291.664L337.139 292.942C342.152 289.717 348.026 286.63 359.861 287.314C364.694 287.585 371.334 290.078 379.026 292.98C390.09 297.136 402.619 301.858 415.026 302.118C435.682 302.527 453.821 291.361 469.203 280.852C473.299 278.064 478.246 274.292 483.968 269.913C498.166 259.065 515.826 245.563 533.134 237.638C558.213 226.159 577.21 226.299 599.195 226.462L599.212 226.452Z" fill="#F5F5F5" fill-opacity="0.4"/>
<path d="M596.52 225.481L596.627 224.722L596.662 223.96C573.635 221.842 547.535 219.448 519.258 233.019C502.446 241.062 487.911 252.317 475.082 262.26C466.594 268.841 458.571 275.053 451.425 279.031C430.344 290.779 412.836 292.975 396.341 285.943C380.633 279.271 364.144 273.809 349.972 279.046L350.5 280.472C364.172 275.414 380.325 280.789 395.743 287.334C412.709 294.558 430.633 292.352 452.159 280.352C459.398 276.317 467.467 270.065 476.006 263.452C488.773 253.559 503.239 242.346 519.901 234.385C547.808 220.995 573.682 223.365 596.51 225.464L596.52 225.481Z" fill="#F5F5F5" fill-opacity="0.4"/>
<path d="M593.537 224.362L593.839 222.871C575.755 219.241 559.063 216.572 537.813 220.644C512.618 225.484 492.526 238.854 474.795 250.661C473.164 251.75 471.55 252.829 469.95 253.911C454.812 264.093 440.521 273.706 423.043 277.834C412.967 280.131 404.736 276.869 396.029 273.407C385.939 269.401 375.509 265.264 362.181 270.649L362.748 272.062C375.513 266.907 385.206 270.746 395.469 274.823C404.012 278.209 412.854 281.717 423.397 279.32C441.143 275.131 455.556 265.432 470.808 255.168C472.409 254.086 474.022 253.007 475.645 251.923C493.262 240.198 513.218 226.912 538.108 222.131C559.124 218.098 574.99 220.629 593.554 224.351L593.537 224.362Z" fill="#F5F5F5" fill-opacity="0.4"/>
<path d="M588.127 222.261L588.392 220.769C585.695 220.284 583.106 219.802 580.599 219.34C563.032 216.072 549.16 213.497 531.986 216.956C513.582 220.669 499.487 226.658 481.73 238.328C479.253 239.951 476.855 241.55 474.542 243.095C461.099 252.043 450.476 259.108 439.666 262.633L438.004 263.178C426.32 267.019 419.277 269.336 406.694 266.316C402.59 265.324 399.182 264.068 396.176 262.95C389.428 260.453 384.096 258.48 376.01 261.487L376.538 262.913C384.098 260.101 388.942 261.893 395.649 264.38C398.696 265.508 402.142 266.788 406.337 267.794C419.346 270.914 426.547 268.548 438.484 264.621L440.137 264.082C451.139 260.485 461.838 253.373 475.384 244.362C477.702 242.825 480.091 241.232 482.562 239.6C500.146 228.049 514.09 222.119 532.281 218.442C549.168 215.032 562.913 217.592 580.311 220.834C582.823 221.305 585.412 221.786 588.11 222.271L588.127 222.261Z" fill="#F5F5F5" fill-opacity="0.4"/>
<path d="M581.766 219.878L582.081 218.39C578.414 217.61 575.102 216.87 571.889 216.139C552.517 211.776 540.822 209.149 514.922 214.483C493.258 218.951 476.261 229.929 463.857 237.953C458.942 241.128 454.707 243.861 450.969 245.746C438.354 252.114 424.753 258.162 409.39 256.295C399.87 255.133 396.851 253.86 394.857 253.011C393.714 252.53 392.809 252.148 391.244 252.069L391.169 253.584C392.468 253.652 393.14 253.942 394.265 254.411C396.338 255.293 399.469 256.615 409.207 257.806C424.992 259.73 438.83 253.571 451.657 247.108C455.459 245.195 459.738 242.435 464.686 239.239C476.994 231.286 493.846 220.398 515.236 215.981C540.823 210.711 552.391 213.323 571.565 217.632C574.781 218.349 578.104 219.106 581.779 219.881L581.766 219.878Z" fill="#F5F5F5" fill-opacity="0.4"/>
<path d="M564.363 214.592L564.679 213.105C551.794 210.378 527.497 206.412 509.601 210.529C491.025 214.783 471.596 222.184 458.905 229.857C443.361 239.267 433.332 243.849 425.379 245.188C416.564 246.671 402.444 245.54 402.308 245.53L402.238 246.291L401.622 246.741C401.773 246.946 402.753 247.101 404.565 247.204C405.919 247.285 408.052 247.39 410.49 247.436C414.813 247.528 420.937 247.472 425.613 246.689C433.77 245.319 443.958 240.673 459.678 231.166C472.242 223.572 491.497 216.231 509.923 212.022C527.534 207.976 551.586 211.905 564.346 214.603L564.363 214.592Z" fill="#F5F5F5" fill-opacity="0.4"/>
<path d="M533.365 209.652L533.376 208.129C512.604 207.969 507.779 208.492 493.65 212.41C480.63 216.03 460.952 221.506 447.761 227.818C434.618 234.112 422.681 237.792 417.374 237.191L417.205 238.706C422.874 239.342 434.832 235.696 448.419 229.186C461.485 222.939 481.093 217.484 494.06 213.873C508.158 209.962 512.565 209.486 533.373 209.647L533.365 209.652Z" fill="#F5F5F5" fill-opacity="0.4"/>
<path d="M292.18 327.062C303.411 320.126 314.143 311.925 324.536 302.357C342.481 285.834 357.939 266.711 372.892 248.216C379.342 240.237 386.01 231.983 392.844 223.979L391.682 222.992C384.845 231.01 378.169 239.269 371.702 247.259C340.682 285.641 311.387 321.889 258.709 341.853C230.592 352.504 194.814 347.248 169.752 340.958C152.529 336.725 137.048 331.03 123.397 326.014C113.609 322.421 104.364 319.021 96.2008 316.822C90.3259 315.302 84.4389 313.495 78.7497 311.743C56.6978 304.981 33.8796 297.986 6.63723 305.829L7.05546 307.287C33.869 299.568 56.4564 306.493 78.3051 313.193C84.0166 314.943 89.9174 316.753 95.8113 318.285C103.909 320.454 113.118 323.852 122.873 327.431C136.57 332.465 152.093 338.17 169.39 342.427C194.659 348.766 230.763 354.056 259.254 343.268C270.757 338.904 281.692 333.526 292.183 327.048L292.18 327.062Z" fill="#F5F5F5" fill-opacity="0.4"/>
<path d="M282.406 328.325C327.646 300.39 341.54 283.948 366.733 254.135C374.725 244.675 383.793 233.951 395.362 221.072L394.229 220.056C382.643 232.945 373.572 243.683 365.572 253.148C340.479 282.84 326.638 299.214 281.611 327.018L281.466 327.107C247.377 348.016 207.074 344.262 186.078 340.161C163.799 335.925 148.019 328.051 138.589 323.344C135.957 322.031 133.87 320.992 132.31 320.369C127.404 318.686 119.359 315.403 110.042 311.601C89.8701 303.372 64.7671 293.134 53.1644 291.531C35.6347 289.827 14.3781 293.374 12.0131 293.789C12.0439 293.781 12.205 293.776 12.3774 293.846L11.7985 295.249C12.0037 295.334 12.1628 295.306 12.2689 295.288C14.6169 294.884 35.6836 291.372 52.9814 293.043C64.3573 294.621 89.3619 304.814 109.455 313.01C118.799 316.818 126.863 320.113 131.769 321.796C133.236 322.383 135.295 323.415 137.904 324.707C147.399 329.445 163.296 337.375 185.782 341.661C201.686 344.768 218.066 345.619 233.154 344.129C251.726 342.287 268.256 337.004 282.262 328.415L282.406 328.325Z" fill="#F5F5F5" fill-opacity="0.4"/>
<path d="M295.544 315.018C307.099 307.883 316.054 301.354 326.624 291.901C341.821 278.274 361.083 257.87 391.252 225.702L390.139 224.662C360 256.8 340.757 277.18 325.606 290.766C310.634 304.149 298.911 311.658 278.27 323.416C255.167 336.307 229.939 338.276 212.843 337.655C190.761 336.858 174.373 331.769 168.165 328.892L168.114 328.865C158.749 325.328 143.647 317.012 127.666 308.205C114.171 300.777 100.216 293.081 89.583 288.271C66.9115 278.659 47.2978 271.848 18.6137 278.536L18.9619 280.013C47.2681 273.417 65.8376 279.851 88.9712 289.659C99.5306 294.445 113.456 302.112 126.923 309.533C142.937 318.355 158.076 326.695 167.54 330.277C176.001 334.196 193.258 338.466 212.768 339.171C230.058 339.801 255.584 337.801 278.99 324.734C285.188 321.201 290.581 318.059 295.508 315.017L295.544 315.018Z" fill="#F5F5F5" fill-opacity="0.4"/>
<path d="M293.189 312.288C297.587 309.572 301.88 306.722 306.1 303.81C331.561 286.478 349.307 268.186 376.174 240.513C382.878 233.611 389.807 226.465 397.643 218.523L396.559 217.453C388.715 225.4 381.781 232.538 375.082 239.448C348.281 267.057 330.584 285.295 305.236 302.545C276.176 322.594 243.402 339.694 200.662 329.158C170.058 321.318 150.793 308.239 132.169 295.587C126.096 291.463 119.809 287.2 113.238 283.183C88.2369 267.876 61.2797 253.588 30.8435 261.417L31.2225 262.887C61.0843 255.213 87.7223 269.346 112.452 284.48C118.993 288.468 125.261 292.719 131.32 296.84C150.059 309.562 169.43 322.717 200.3 330.627C237.396 339.77 267.023 328.422 293.187 312.266L293.189 312.288Z" fill="#F5F5F5" fill-opacity="0.4"/>
<path d="M299.418 304.199C324.126 288.942 340.647 273.252 374.591 241.032C379.006 236.837 383.718 232.364 388.78 227.581L387.734 226.476C382.672 231.259 377.959 235.732 373.545 239.927C334.876 276.639 318.864 291.839 287.564 309.403C250.97 330.061 210.159 331.462 183.587 312.964C174.489 306.605 165.863 299.791 157.525 293.199C139.508 278.962 122.487 265.52 101.155 256.326C72.218 243.99 39.0402 243.686 32.6882 243.754L32.5493 243.757L32.538 244.481L32.3007 245.239C32.416 245.273 32.4743 245.272 32.7076 245.269C39.015 245.206 71.9098 245.508 100.563 257.726C121.711 266.833 138.651 280.219 156.587 294.401C164.943 301.005 173.589 307.831 182.721 314.227C196.429 323.768 213.851 328.324 233.085 327.401C251.473 326.518 270.564 320.758 288.317 310.737C292.237 308.539 295.917 306.372 299.423 304.208L299.418 304.199Z" fill="#F5F5F5" fill-opacity="0.4"/>
<path d="M301.186 299.64C319.82 288.134 338.649 271.653 368.681 245.375C373.931 240.781 379.522 235.884 385.523 230.662L384.522 229.517C378.521 234.739 372.922 239.642 367.672 244.235C317.448 288.176 298.656 304.622 259.648 316.251C240.383 321.919 220.877 321.012 203.249 313.61C190.38 308.205 178.362 299.172 171.106 289.42L171.069 289.36C157.127 273.711 121.584 248.354 105.334 239.549C86.7321 230.608 55.2729 225.342 35.184 227.792L35.3646 229.302C55.1999 226.879 86.281 232.086 104.643 240.904C120.756 249.641 156.054 274.809 169.905 290.35C177.318 300.299 189.563 309.509 202.656 315.01C220.61 322.54 240.464 323.479 260.075 317.704C275.976 312.963 288.528 307.444 301.172 299.637L301.186 299.64Z" fill="#F5F5F5" fill-opacity="0.4"/>
<path d="M970.19 147.823L969.672 145.863C931.838 155.815 897.435 150.157 868.16 144.069C853.813 140.953 839.357 137.374 825.377 133.901C807.407 129.448 790.425 125.244 774.335 122.122C745 116.66 726.627 116.405 710.909 121.233C695.584 125.936 683.231 135.527 666.131 149.612L667.417 151.181C701.909 122.76 716.746 113.48 773.958 124.118C789.988 127.218 806.942 131.416 824.889 135.871C838.886 139.334 853.353 142.929 867.736 146.047C897.248 152.176 931.925 157.877 970.184 147.815L970.19 147.823Z" fill="#F5F5F5" fill-opacity="0.4"/>
<path d="M465.257 331.675C469.112 329.295 472.727 326.604 476.129 323.586C492.277 309.349 505.787 296.34 517.707 284.867C554.114 249.822 576.084 228.663 613.224 231.633L613.388 229.615C575.341 226.583 553.113 247.972 516.306 283.416C504.404 294.88 490.905 307.869 474.791 322.086C458.291 336.705 436.344 343.664 407.691 343.34C388.6 343.105 367.86 339.458 344.296 332.207C316.197 323.455 292.964 329.892 284.286 333.064C284.112 333.125 284 333.171 283.952 333.188L284.222 334.044L284.149 335.182C284.384 335.202 284.488 335.161 284.997 334.976C293.492 331.869 316.204 325.578 343.712 334.154C367.48 341.468 388.396 345.135 407.681 345.38C430.994 345.639 449.975 341.147 465.282 331.695L465.257 331.675Z" fill="#F5F5F5" fill-opacity="0.4"/>
<path d="M1120.75 193.463C1121.79 192.822 1122.83 192.167 1123.88 191.477C1144.47 178.088 1168.56 155.657 1193.56 126.611C1246.24 65.5938 1286.46 -5.70116 1305.74 -42.7608L1303.94 -43.6949C1284.7 -6.70611 1244.57 64.423 1192.03 125.29C1167.16 154.198 1143.21 176.495 1122.77 189.784C1099.7 204.796 1079.6 209.366 1061.33 203.715C1047.08 199.395 1034.14 194.873 1021.61 190.501C1000.37 183.087 980.292 176.08 959.676 172.309C926.439 165.837 892.144 167.398 848.489 177.383L848.945 179.358C892.314 169.443 926.348 167.879 959.307 174.3C979.791 178.046 999.784 185.034 1020.95 192.415C1033.49 196.79 1046.45 201.315 1060.73 205.645C1078.77 211.219 1098.44 207.231 1120.75 193.455L1120.75 193.463Z" fill="#F5F5F5" fill-opacity="0.4"/>
<path d="M1058.71 108.948C1094.16 87.055 1127.09 57.6748 1156.63 21.5526L1155.06 20.2658C1082.98 108.39 1008.64 135.808 958.986 148.771C942.91 153.15 927.373 156.539 912.342 159.815C871.68 168.669 836.563 176.321 812.786 199.16C780.884 229.225 748.636 244.131 711.324 246.039C677.412 247.917 637.282 239.589 588.64 220.58C547.614 204.732 508.794 203.341 466.457 216.202C431.35 227.068 393.413 247.779 343.426 283.347L344.598 284.998C394.395 249.559 432.159 228.931 467.039 218.135C508.916 205.404 547.318 206.783 587.898 222.461C636.819 241.579 677.228 249.958 711.429 248.055C730.281 247.086 747.685 242.838 764.615 235.063C781.718 227.206 797.926 215.94 814.183 200.624C837.552 178.19 872.409 170.593 912.776 161.792C927.829 158.514 943.388 155.124 959.512 150.726C994.764 141.522 1026 128.606 1054.99 111.208C1056.23 110.464 1057.48 109.705 1058.72 108.943L1058.71 108.948Z" fill="#F5F5F5" fill-opacity="0.4"/>
<path d="M1091.43 -88.6591C1122.09 -107.589 1150.38 -130.698 1174.02 -156.403L1172.53 -157.773C1135.28 -117.273 1086.42 -83.2473 1034.95 -61.9505C991.114 -43.4712 950.638 -35.895 913.422 -30.4615C882.707 -25.9394 849.902 -14.5438 818.537 2.49678C789.698 18.1656 765.242 36.9342 749.658 55.3598L751.208 56.671C779.857 22.7848 846.551 -18.5624 913.71 -28.4533C951.054 -33.9074 991.69 -41.5113 1035.73 -60.0807C1054.8 -67.9667 1073.52 -77.6079 1091.43 -88.6676L1091.43 -88.6591Z" fill="#F5F5F5" fill-opacity="0.4"/>
<path d="M706.509 90.0314C708.875 88.5708 711.115 86.9643 713.183 85.1936L711.868 83.6547C695.561 97.6148 667.772 101.376 652.663 102.373C631.624 103.799 608.491 101.642 593.74 96.8822C579.548 91.695 547.543 84.6497 517.86 91.167C500.599 95.2087 486.261 103.393 474.015 116.184C459.146 131.713 447.149 154.024 437.319 184.375L439.243 184.997C457.009 130.117 481.388 101.783 518.302 93.1389C547.523 86.7304 579.048 93.6841 593.068 98.8014C608.318 103.723 631.181 105.86 652.786 104.4C666.258 103.51 689.645 100.445 706.501 90.0366L706.509 90.0314Z" fill="#F5F5F5" fill-opacity="0.4"/>
<path d="M1158.76 20.3335C1161.48 18.6575 1164.18 16.9146 1166.89 15.1135C1212.48 -14.5553 1261.54 -66.1774 1291.84 -116.413L1290.11 -117.456C1259.94 -67.4623 1211.14 -16.0869 1165.78 13.4263C1129.35 37.7556 1092.28 49.9825 1066.62 46.1441C1058.59 44.9071 1050.54 43.5469 1042.01 42.0984C1027.39 39.6215 1012.28 37.0496 994.008 34.5678C961.218 30.04 924.03 26.5717 880.286 23.9657C826.164 21.1869 782.726 37.6321 755.806 51.9163C740.197 60.2504 726.259 69.997 715.483 80.1063C705.051 89.8974 698.001 99.5869 695.122 108.134C688.563 127.546 674.286 145.517 656.92 156.241C656.783 156.325 656.656 156.403 656.52 156.487C640.643 166.291 613.739 175.559 575.295 164.556C541.826 155.864 507.103 156.75 474.859 167.094C442.937 177.333 414.108 196.615 391.471 222.84C384.031 231.348 376.727 240.97 368.99 251.166C353.062 272.155 334.997 295.945 311.625 314.643C288.38 333.698 239.337 363.183 171.884 346.658C143.727 339.41 123.602 333.351 107.436 328.489C91.9165 323.816 80.6976 320.436 69.7005 318.177C47.563 313.313 28.3685 313.671 0.699044 316.007L0.867231 318.03C28.3448 315.707 47.3782 315.354 69.3019 320.139C80.2302 322.382 91.4078 325.752 106.873 330.412C123.057 335.285 143.201 341.357 171.408 348.609C198.51 355.25 225.408 355.071 251.374 348.075C273.461 342.123 294.748 331.106 312.92 316.206C336.48 297.356 354.621 273.461 370.63 252.375C378.344 242.217 385.635 232.614 393.021 224.151C438.612 171.318 508.25 149.225 574.772 166.489C613.898 177.682 641.367 168.207 657.584 158.192C657.72 158.108 657.856 158.024 657.993 157.94C675.741 146.98 690.332 128.604 697.046 108.756C702.845 91.5772 726.291 69.9537 756.763 53.6758C783.452 39.5112 826.521 23.2113 880.178 25.96C923.849 28.5635 961.002 32.0306 993.728 36.5506C1011.96 39.0312 1027.06 41.5913 1041.67 44.0734C1050.2 45.5167 1058.26 46.8854 1066.3 48.1257C1090.53 51.7475 1124.59 41.4113 1158.74 20.3218L1158.76 20.3335Z" fill="#F5F5F5" fill-opacity="0.4"/>
</svg>
